<?xml version="1.0" standalone="no"?>
<!DOCTYPE svg PUBLIC "-//W3C//DTD SVG 20010904//EN"
 "http://www.w3.org/TR/2001/REC-SVG-20010904/DTD/svg10.dtd">
<svg version="1.0" xmlns="http://www.w3.org/2000/svg"
 width="700.000000pt" height="700.000000pt" viewBox="0 0 700.000000 700.000000"
 preserveAspectRatio="xMidYMid meet">
<metadata>
Created by potrace 1.11, written by Peter Selinger 2001-2013
</metadata>
<g transform="translate(0.000000,700.000000) scale(0.100000,-0.100000)"
fill="#000000" stroke="none">
<path d="M3345 6750 c-49 -16 -142 -47 -205 -69 -63 -21 -275 -94 -470 -161
-1315 -451 -1648 -565 -1680 -578 -34 -13 -74 -52 -96 -93 -17 -32 -18 -117
-18 -1789 l0 -1755 21 -45 c33 -69 60 -94 313 -292 129 -100 242 -189 250
-195 8 -7 52 -41 96 -75 45 -35 193 -151 329 -258 136 -107 259 -204 274 -215
14 -11 136 -107 271 -212 135 -106 277 -218 315 -248 39 -30 97 -76 131 -102
33 -26 76 -60 95 -75 19 -15 124 -97 234 -184 109 -86 214 -163 232 -170 54
-23 104 -17 159 17 27 17 51 35 54 38 3 4 50 42 105 84 115 89 129 101 245
192 100 78 85 66 230 181 206 163 636 499 665 519 15 11 35 27 44 36 9 8 57
47 106 85 50 38 185 143 300 234 116 91 242 190 280 220 426 330 441 344 478
420 l21 45 0 1755 0 1755 -21 40 c-39 72 -29 68 -433 206 -179 61 -381 130
-450 154 -69 23 -154 53 -190 65 -36 12 -195 67 -355 122 -159 55 -315 108
-345 118 -30 10 -194 67 -365 125 -398 138 -378 132 -460 133 -52 1 -93 -6
-160 -28z m457 -634 c167 -57 364 -125 438 -151 74 -25 160 -55 190 -65 50
-17 483 -165 895 -307 88 -30 181 -61 206 -70 l46 -15 0 -1503 0 -1503 -50
-39 c-45 -34 -202 -157 -297 -233 -33 -26 -150 -118 -299 -233 -35 -27 -71
-56 -80 -63 -9 -7 -200 -158 -426 -335 -225 -176 -426 -333 -445 -349 -19 -15
-105 -82 -190 -149 -227 -177 -274 -215 -280 -223 -3 -4 -47 25 -97 65 -268
211 -592 465 -623 488 -19 15 -137 107 -262 205 -424 335 -570 449 -648 509
-42 33 -157 123 -255 200 -98 77 -183 143 -189 147 -12 8 -17 2991 -5 3009 3
6 44 23 90 39 46 16 152 52 234 80 83 29 240 83 350 120 287 99 1371 472 1392
479 1 1 138 -46 305 -103z"/>
<path d="M1798 4461 c-18 -15 -19 -30 -19 -313 -1 -185 3 -303 10 -316 5 -10
36 -39 68 -63 32 -24 64 -49 73 -56 8 -7 74 -59 146 -115 72 -57 146 -115 165
-130 19 -15 176 -138 349 -274 173 -135 329 -257 345 -270 17 -13 55 -43 85
-67 332 -263 398 -311 435 -322 73 -21 105 -6 280 131 88 69 214 167 280 219
66 51 188 146 270 211 83 65 319 250 525 412 206 161 383 304 393 317 16 21
17 52 18 319 0 163 -3 301 -7 307 -11 18 -48 27 -69 16 -16 -8 -417 -320 -685
-532 -36 -28 -85 -67 -110 -86 -25 -19 -54 -42 -65 -51 -11 -9 -69 -55 -130
-103 -60 -47 -123 -96 -140 -109 -392 -308 -506 -396 -515 -396 -5 0 -108 77
-227 171 -120 94 -254 199 -297 233 -43 33 -113 88 -155 121 -42 33 -191 150
-331 260 -140 110 -262 205 -270 212 -34 27 -139 110 -170 133 -18 14 -71 55
-117 91 -46 36 -91 66 -99 66 -9 0 -25 -7 -36 -16z"/>
</g>
</svg>
