<svg viewBox="0 0 1024 1024" fill="none" xmlns="http://www.w3.org/2000/svg">
<circle cx="512" cy="512" r="512" fill="#1890FF"/>
<path fill-rule="evenodd" clip-rule="evenodd" d="M740.083 298.017L740.076 298.015L522.358 223.326C519.464 222.331 515.711 221.867 512.058 221.867C508.406 221.867 504.653 222.331 501.759 223.326L284.054 298.011L284.05 298.012C280.929 299.073 278.202 301.369 276.264 304.113C274.325 306.858 273.062 310.212 273.062 313.531V624.663C273.062 627.88 274.084 631.465 275.637 634.669C277.191 637.875 279.371 640.891 281.865 642.892L281.873 642.899L502.733 816.144L502.74 816.15C505.358 818.183 508.668 819.2 511.994 819.2C515.301 819.2 518.69 818.193 521.263 816.139L521.27 816.133L742.107 642.906L742.111 642.903C744.614 640.931 746.797 637.924 748.352 634.717C749.906 631.51 750.926 627.909 750.926 624.663V313.552C750.995 310.221 749.762 306.878 747.84 304.142C745.914 301.398 743.188 299.11 740.083 298.017ZM701.054 337.886V611.327L512.058 759.572L323.063 611.327V337.886L512.058 273.022L701.054 337.886Z" fill="white"/>
<path d="M533.49 390.14C533.49 400.904 524.764 409.631 514 409.631C503.236 409.631 494.51 400.904 494.51 390.14C494.51 379.376 503.236 370.65 514 370.65C524.764 370.65 533.49 379.376 533.49 390.14Z" fill="white"/>
<path d="M629.86 525.49C619.096 525.49 610.369 516.764 610.369 506C610.369 495.236 619.096 486.51 629.86 486.51C640.624 486.51 649.35 495.236 649.35 506C649.35 516.764 640.624 525.49 629.86 525.49Z" fill="white"/>
<path d="M533.49 621.86C533.49 632.624 524.764 641.35 514 641.35C503.236 641.35 494.51 632.624 494.51 621.86C494.51 611.096 503.236 602.369 514 602.369C524.764 602.369 533.49 611.096 533.49 621.86Z" fill="white"/>
<path d="M398.14 525.49C387.376 525.49 378.65 516.764 378.65 506C378.65 495.236 387.376 486.51 398.14 486.51C408.904 486.51 417.631 495.236 417.631 506C417.631 516.764 408.904 525.49 398.14 525.49Z" fill="white"/>
<path fill-rule="evenodd" clip-rule="evenodd" d="M568.14 390.14C568.14 407.218 560.233 422.449 547.88 432.372C540.047 438.664 533.49 447.292 533.49 457.339C533.49 473.45 546.55 486.51 562.661 486.51C572.708 486.51 581.336 479.953 587.628 472.12C597.551 459.767 612.782 451.86 629.86 451.86C659.761 451.86 684 476.099 684 506C684 535.901 659.761 560.14 629.86 560.14C612.782 560.14 597.551 552.233 587.628 539.88C581.336 532.047 572.708 525.49 562.661 525.49C546.55 525.49 533.49 538.55 533.49 554.661C533.49 564.708 540.047 573.336 547.88 579.628C560.233 589.551 568.14 604.782 568.14 621.86C568.14 651.761 543.901 676 514 676C484.099 676 459.86 651.761 459.86 621.86C459.86 604.782 467.767 589.551 480.12 579.628C487.953 573.336 494.51 564.708 494.51 554.661C494.51 538.55 481.45 525.49 465.339 525.49C455.292 525.49 446.664 532.047 440.372 539.88C430.449 552.233 415.218 560.14 398.14 560.14C368.239 560.14 344 535.901 344 506C344 476.099 368.239 451.86 398.14 451.86C415.218 451.86 430.449 459.767 440.372 472.12C446.664 479.953 455.292 486.51 465.339 486.51C481.45 486.51 494.51 473.45 494.51 457.339C494.51 447.292 487.953 438.664 480.12 432.372C467.767 422.449 459.86 407.218 459.86 390.14C459.86 360.239 484.099 336 514 336C543.901 336 568.14 360.239 568.14 390.14ZM544.318 390.14C544.318 406.885 530.744 420.459 514 420.459C497.256 420.459 483.682 406.885 483.682 390.14C483.682 373.396 497.256 359.822 514 359.822C530.744 359.822 544.318 373.396 544.318 390.14ZM629.86 536.318C613.115 536.318 599.541 522.744 599.541 506C599.541 489.256 613.115 475.682 629.86 475.682C646.604 475.682 660.178 489.256 660.178 506C660.178 522.744 646.604 536.318 629.86 536.318ZM514 652.178C530.744 652.178 544.318 638.604 544.318 621.86C544.318 605.115 530.744 591.541 514 591.541C497.256 591.541 483.682 605.115 483.682 621.86C483.682 638.604 497.256 652.178 514 652.178ZM398.14 536.318C381.396 536.318 367.822 522.744 367.822 506C367.822 489.256 381.396 475.682 398.14 475.682C414.885 475.682 428.459 489.256 428.459 506C428.459 522.744 414.885 536.318 398.14 536.318Z" fill="white"/>
</svg>