<svg xmlns="http://www.w3.org/2000/svg" viewBox="0 0 80 80" fill="none">
<path d="M0 16C0 7.16344 7.16344 0 16 0H64C72.8366 0 80 7.16344 80 16V64C80 72.8366 72.8366 80 64 80H16C7.16344 80 0 72.8366 0 64V16Z" fill="url(#paint0_linear)"/>
<path d="M32.0405 0H24.0186V18.4469H32.0405V0Z" fill="white"/>
<path d="M45.5057 56.6881H34.9053C28.8888 56.6881 24.0184 51.8075 24.0184 45.7786V38.027H32.0403V45.7211C32.0403 47.3289 33.3009 48.5921 34.9053 48.5921H45.5057C47.1101 48.5921 48.3707 47.3289 48.3707 45.7211V35.1561C48.3707 33.5483 47.1101 32.2851 45.5057 32.2851H0V24.2465H45.5057C51.5221 24.2465 56.3926 29.1271 56.3926 35.1561V45.7786C56.3926 51.8075 51.5221 56.6881 45.5057 56.6881Z" fill="white"/>
<defs>
<linearGradient id="paint0_linear" x1="74.8" y1="74.8" x2="10.8" y2="10.8" gradientUnits="userSpaceOnUse">
<stop offset="0.159375" stop-color="#003CDA"/>
<stop offset="1" stop-color="#33DFCC"/>
</linearGradient>
</defs>
</svg>