<svg xmlns="http://www.w3.org/2000/svg" viewBox="0 0 56 56" fill="none">
<rect width="56" height="56" fill="#1652F0"/>
<rect x="12" y="12" width="32" height="32" rx="16" fill="white"/>
<path fill-rule="evenodd" clip-rule="evenodd" d="M4 28C4 41.24 14.76 52 28 52C41.24 52 52 41.24 52 28C52 14.76 41.24 4 28 4C14.76 4 4 14.76 4 28ZM28.7194 34.72C30.5594 34.72 32.2394 34 33.4794 32.76L37.1994 36.48C35.0394 38.64 32.0394 40 28.7194 40C22.0794 40 16.7194 34.64 16.7194 28C16.7194 21.36 22.0794 16 28.7194 16C32.0394 16 35.0394 17.32 37.1994 19.44L33.4794 23.16C32.2794 21.96 30.5994 21.2 28.7194 21.2C24.9994 21.2 21.9594 24.24 21.9594 27.96C21.9594 31.68 24.9994 34.72 28.7194 34.72Z" fill="#1652F0"/>
</svg>