<svg width="242" height="108" viewBox="0 0 242 108" fill="none" xmlns="http://www.w3.org/2000/svg">
<g clip-path="url(#clip0)">
<path d="M62.4807 32.3716C66.2519 32.3716 68.1375 32.3716 69.3091 33.5385C70.4807 34.7054 70.4807 36.5835 70.4807 40.3398V68.5853C70.4807 72.3415 70.4807 74.2196 69.3091 75.3865C68.1375 76.5534 66.2519 76.5534 62.4807 76.5534L7.99999 76.5534C4.22876 76.5534 2.34315 76.5534 1.17157 75.3865C-2.38419e-07 74.2196 -1.64722e-07 72.3415 1.23464e-10 68.5853L1.23971e-06 40.3397C1.40456e-06 36.5835 1.43051e-06 34.7054 1.17157 33.5385C2.34315 32.3716 4.22877 32.3716 8 32.3716L62.4807 32.3716Z" fill="url(#paint0_linear)"/>
<rect x="48.3014" y="37.2807" width="3.94297" height="3.92727" fill="#69C0FF"/>
<rect x="48.3014" y="49.0625" width="3.94297" height="3.92727" fill="#69C0FF"/>
<rect x="54.2158" y="43.1716" width="1.97149" height="1.96364" fill="#69C0FF"/>
<rect x="56.1874" y="43.1716" width="1.97149" height="1.96364" fill="#69C0FF"/>
<rect x="58.1588" y="41.208" width="1.97149" height="1.96363" fill="#69C0FF"/>
<rect x="54.2158" y="45.1352" width="1.97149" height="1.96364" fill="#69C0FF"/>
<rect x="52.2444" y="43.1716" width="1.97149" height="1.96364" fill="#69C0FF"/>
<rect x="58.1588" y="45.1352" width="1.97149" height="3.92728" fill="#69C0FF"/>
<rect x="56.1874" y="47.0989" width="1.97149" height="1.96363" fill="#69C0FF"/>
<rect x="54.2158" y="41.208" width="1.97149" height="1.96363" fill="#69C0FF"/>
<rect x="52.2444" y="47.0989" width="1.97149" height="1.96363" fill="#69C0FF"/>
<rect x="60.1304" y="37.2807" width="3.94297" height="3.92727" fill="#69C0FF"/>
<rect x="60.1304" y="49.0625" width="3.94297" height="3.92727" fill="#69C0FF"/>
<rect x="9.85742" y="64.2807" width="4.92872" height="4.90909" rx="2.45454" fill="#BAE7FF"/>
<path d="M18.6612 68.2521C18.2856 68.2521 17.9958 68.1255 17.7917 67.8722C17.5907 67.6159 17.4901 67.2419 17.4901 66.75C17.4901 66.2581 17.5907 65.8855 17.7917 65.6322C17.9958 65.3759 18.2856 65.2478 18.6612 65.2478C19.0367 65.2478 19.3251 65.3759 19.5262 65.6322C19.7302 65.8855 19.8322 66.2581 19.8322 66.75C19.8322 67.2419 19.7302 67.6159 19.5262 67.8722C19.3251 68.1255 19.0367 68.2521 18.6612 68.2521ZM18.6612 67.7617C18.8504 67.7617 18.9909 67.6807 19.0826 67.5187C19.1743 67.3538 19.2201 67.0975 19.2201 66.75C19.2201 66.4024 19.1743 66.1476 19.0826 65.9856C18.9909 65.8207 18.8504 65.7382 18.6612 65.7382C18.4719 65.7382 18.3314 65.8207 18.2398 65.9856C18.1481 66.1476 18.1023 66.4024 18.1023 66.75C18.1023 67.0975 18.1481 67.3538 18.2398 67.5187C18.3314 67.6807 18.4719 67.7617 18.6612 67.7617Z" fill="#BAE7FF"/>
<path d="M20.9711 65.9989L21.4369 66.7676L21.9071 65.9989H22.5946L21.8095 67.0902L22.6079 68.208H21.9026L21.4103 67.4083L20.909 68.208H20.2214L21.0376 67.0902L20.2614 65.9989H20.9711Z" fill="#BAE7FF"/>
<path d="M24.1841 68.2521C23.8086 68.2521 23.5188 68.1255 23.3147 67.8722C23.1136 67.6159 23.0131 67.2419 23.0131 66.75C23.0131 66.2581 23.1136 65.8855 23.3147 65.6322C23.5188 65.3759 23.8086 65.2478 24.1841 65.2478C24.5597 65.2478 24.848 65.3759 25.0491 65.6322C25.2532 65.8855 25.3552 66.2581 25.3552 66.75C25.3552 67.2419 25.2532 67.6159 25.0491 67.8722C24.848 68.1255 24.5597 68.2521 24.1841 68.2521ZM24.1841 67.7617C24.3734 67.7617 24.5139 67.6807 24.6056 67.5187C24.6972 67.3538 24.7431 67.0975 24.7431 66.75C24.7431 66.4024 24.6972 66.1476 24.6056 65.9856C24.5139 65.8207 24.3734 65.7382 24.1841 65.7382C23.9949 65.7382 23.8544 65.8207 23.7627 65.9856C23.6711 66.1476 23.6252 66.4024 23.6252 66.75C23.6252 67.0975 23.6711 67.3538 23.7627 67.5187C23.8544 67.6807 23.9949 67.7617 24.1841 67.7617Z" fill="#BAE7FF"/>
<path d="M27.0929 68.2521C26.7174 68.2521 26.4275 68.1255 26.2235 67.8722C26.0224 67.6159 25.9219 67.2419 25.9219 66.75C25.9219 66.2581 26.0224 65.8855 26.2235 65.6322C26.4275 65.3759 26.7174 65.2478 27.0929 65.2478C27.4685 65.2478 27.7568 65.3759 27.9579 65.6322C28.162 65.8855 28.264 66.2581 28.264 66.75C28.264 67.2419 28.162 67.6159 27.9579 67.8722C27.7568 68.1255 27.4685 68.2521 27.0929 68.2521ZM27.0929 67.7617C27.2822 67.7617 27.4227 67.6807 27.5143 67.5187C27.606 67.3538 27.6518 67.0975 27.6518 66.75C27.6518 66.4024 27.606 66.1476 27.5143 65.9856C27.4227 65.8207 27.2822 65.7382 27.0929 65.7382C26.9037 65.7382 26.7632 65.8207 26.6715 65.9856C26.5798 66.1476 26.534 66.4024 26.534 66.75C26.534 67.0975 26.5798 67.3538 26.6715 67.5187C26.7632 67.6807 26.9037 67.7617 27.0929 67.7617Z" fill="#BAE7FF"/>
<path d="M29.8952 65.2478C30.2856 65.2478 30.5813 65.3803 30.7824 65.6454C30.9864 65.9076 31.0885 66.2728 31.0885 66.7411C31.0885 67.2566 30.9805 67.638 30.7647 67.8854C30.5488 68.1299 30.2604 68.2521 29.8997 68.2521C29.6483 68.2521 29.4309 68.1991 29.2476 68.0931C29.0642 67.9871 28.9282 67.8251 28.8395 67.6071L29.4029 67.3685C29.4354 67.4893 29.4916 67.5865 29.5714 67.6601C29.6542 67.7308 29.7681 67.7661 29.913 67.7661C30.1407 67.7661 30.3018 67.6778 30.3965 67.5011C30.4911 67.3243 30.5384 67.0813 30.5384 66.7721V66.7102H30.5207C30.4882 66.8162 30.432 66.9017 30.3521 66.9665C30.2752 67.0313 30.1865 67.0799 30.086 67.1123C29.9854 67.1417 29.8819 67.1564 29.7755 67.1564C29.5892 67.1564 29.4236 67.1196 29.2786 67.046C29.1367 66.9694 29.0243 66.8634 28.9415 66.7279C28.8587 66.5924 28.8173 66.4319 28.8173 66.2463C28.8173 66.0401 28.8617 65.8634 28.9504 65.7161C29.0391 65.5659 29.1633 65.451 29.323 65.3715C29.4857 65.289 29.6764 65.2478 29.8952 65.2478ZM29.8997 65.7426C29.74 65.7426 29.6172 65.7868 29.5315 65.8752C29.4457 65.9606 29.4029 66.0813 29.4029 66.2375C29.4029 66.3759 29.4472 66.4849 29.5359 66.5644C29.6276 66.641 29.7488 66.6793 29.8997 66.6793C30.0446 66.6793 30.1629 66.6366 30.2545 66.5511C30.3492 66.4657 30.3965 66.3538 30.3965 66.2154C30.3965 66.071 30.3492 65.9562 30.2545 65.8707C30.1629 65.7853 30.0446 65.7426 29.8997 65.7426Z" fill="#BAE7FF"/>
<path d="M31.7059 68.208V67.7927C32.0608 67.557 32.3446 67.3494 32.5576 67.1697C32.7705 66.9871 32.9228 66.8192 33.0145 66.666C33.1091 66.5129 33.1564 66.3612 33.1564 66.2109C33.1564 66.0755 33.115 65.965 33.0322 65.8796C32.9494 65.7912 32.8326 65.747 32.6818 65.747C32.5162 65.747 32.386 65.803 32.2914 65.9149C32.1997 66.0269 32.1495 66.1859 32.1406 66.3921L31.6127 66.1933C31.6305 65.8958 31.7384 65.6646 31.9365 65.4996C32.1376 65.3317 32.3979 65.2478 32.7173 65.2478C32.9538 65.2478 33.149 65.292 33.3028 65.3803C33.4595 65.4658 33.5763 65.5791 33.6532 65.7205C33.7331 65.8619 33.773 66.0136 33.773 66.1756C33.773 66.4554 33.6665 66.7176 33.4536 66.962C33.2436 67.2036 32.9169 67.4598 32.4733 67.7308V67.7352C32.5383 67.7323 32.6241 67.7293 32.7306 67.7264C32.84 67.7205 32.9331 67.7175 33.01 67.7175H33.8173V68.208H31.7059Z" fill="#BAE7FF"/>
<path d="M35.4445 68.2521C35.1517 68.2521 34.9019 68.1918 34.6948 68.071C34.4908 67.9473 34.3503 67.7706 34.2734 67.5408L34.8501 67.289C34.9092 67.6041 35.1044 67.7617 35.4356 67.7617C35.5835 67.7617 35.6988 67.7234 35.7816 67.6469C35.8674 67.5673 35.9103 67.4628 35.9103 67.3332C35.9103 67.0857 35.7565 66.962 35.4489 66.962C35.378 66.962 35.304 66.9665 35.2271 66.9753V66.5291C35.2715 66.5349 35.3218 66.5379 35.378 66.5379C35.5436 66.5379 35.6619 66.504 35.7328 66.4363C35.8068 66.3685 35.8437 66.2625 35.8437 66.1182C35.8437 65.9974 35.8068 65.9046 35.7328 65.8398C35.6589 65.7721 35.5569 65.7382 35.4268 65.7382C35.2848 65.7382 35.1724 65.7735 35.0896 65.8442C35.0068 65.9149 34.9492 66.0195 34.9166 66.1579L34.371 65.9547C34.4243 65.7338 34.5499 65.56 34.7481 65.4334C34.9462 65.3067 35.1828 65.2434 35.4578 65.2434C35.7831 65.2434 36.03 65.317 36.1986 65.4643C36.3672 65.6115 36.4514 65.8001 36.4514 66.0298C36.4514 66.1889 36.4204 66.3185 36.3583 66.4186C36.2962 66.5187 36.2223 66.5939 36.1365 66.6439C36.0507 66.694 35.9724 66.7235 35.9014 66.7323V66.7455C35.9901 66.7485 36.0818 66.7721 36.1764 66.8162C36.2711 66.8604 36.3509 66.9282 36.416 67.0195C36.481 67.1108 36.5135 67.2271 36.5135 67.3685C36.5135 67.5482 36.4662 67.7043 36.3716 67.8368C36.2799 67.9694 36.1542 68.0725 35.9946 68.1461C35.8349 68.2168 35.6515 68.2521 35.4445 68.2521Z" fill="#BAE7FF"/>
<path d="M38.2074 65.2566C38.5209 65.2566 38.7708 65.3273 38.9571 65.4687C39.1464 65.6071 39.241 65.7986 39.241 66.0431C39.241 66.1962 39.2026 66.3302 39.1257 66.4451C39.0517 66.557 38.9438 66.641 38.8019 66.6969V66.7014C38.9734 66.7632 39.1079 66.8531 39.2055 66.9709C39.3031 67.0887 39.3519 67.2374 39.3519 67.4171C39.3519 67.6704 39.2499 67.8737 39.0458 68.0268C38.8418 68.177 38.5623 68.2521 38.2074 68.2521C37.8585 68.2521 37.5805 68.177 37.3735 68.0268C37.1695 67.8737 37.0674 67.6704 37.0674 67.4171C37.0674 67.2404 37.1162 67.0931 37.2138 66.9753C37.3114 66.8545 37.4474 66.7632 37.6219 66.7014V66.6969C37.48 66.641 37.3706 66.557 37.2937 66.4451C37.2168 66.3302 37.1783 66.1962 37.1783 66.0431C37.1783 65.7986 37.2715 65.6071 37.4578 65.4687C37.6471 65.3273 37.8969 65.2566 38.2074 65.2566ZM38.2074 65.7249C38.0685 65.7249 37.959 65.7588 37.8792 65.8266C37.7993 65.8943 37.7594 65.9886 37.7594 66.1093C37.7594 66.2271 37.7993 66.3214 37.8792 66.3921C37.962 66.4598 38.0714 66.4937 38.2074 66.4937C38.3464 66.4937 38.4559 66.4598 38.5357 66.3921C38.6185 66.3214 38.6599 66.2271 38.6599 66.1093C38.6599 65.9886 38.62 65.8943 38.5401 65.8266C38.4603 65.7588 38.3494 65.7249 38.2074 65.7249ZM38.2074 67.7794C38.376 67.7794 38.5076 67.7426 38.6022 67.6689C38.6998 67.5924 38.7486 67.4878 38.7486 67.3553C38.7486 67.2227 38.6998 67.1181 38.6022 67.0416C38.5046 66.965 38.3731 66.9267 38.2074 66.9267C38.0448 66.9267 37.9132 66.965 37.8127 67.0416C37.7151 67.1181 37.6663 67.2227 37.6663 67.3553C37.6663 67.4878 37.7151 67.5924 37.8127 67.6689C37.9102 67.7426 38.0418 67.7794 38.2074 67.7794Z" fill="#BAE7FF"/>
<path d="M40.3058 65.6808C40.0544 65.6808 39.9288 65.5733 39.9288 65.3582C39.9288 65.1403 40.0544 65.0313 40.3058 65.0313C40.5572 65.0313 40.6829 65.1403 40.6829 65.3582C40.6829 65.5733 40.5572 65.6808 40.3058 65.6808ZM40.6074 65.9989V68.3714C40.6074 68.5629 40.572 68.7161 40.501 68.8309C40.433 68.9487 40.3398 69.0327 40.2215 69.0828C40.1032 69.1328 39.9687 69.1579 39.8179 69.1579C39.7084 69.1579 39.6094 69.1446 39.5207 69.1181C39.4319 69.0945 39.3551 69.0607 39.29 69.0165L39.3832 68.5835C39.4186 68.613 39.463 68.6365 39.5162 68.6542C39.5665 68.6748 39.6256 68.6851 39.6937 68.6851C39.7853 68.6851 39.8593 68.6571 39.9155 68.6012C39.9716 68.5482 39.9997 68.4524 39.9997 68.314V65.9989H40.6074Z" fill="#BAE7FF"/>
<path d="M42.1787 68.2521C41.9954 68.2521 41.8313 68.2065 41.6864 68.1152C41.5444 68.0239 41.432 67.8943 41.3492 67.7264C41.2694 67.5555 41.2295 67.3494 41.2295 67.1078C41.2295 66.8634 41.2724 66.6557 41.3581 66.4849C41.4439 66.3111 41.5592 66.18 41.7041 66.0917C41.852 66.0003 42.0176 65.9547 42.2009 65.9547C42.3606 65.9547 42.4981 65.993 42.6135 66.0696C42.7288 66.1461 42.816 66.2478 42.8752 66.3744V65.0313H43.4829V68.208H42.9373L42.9107 67.7794C42.8486 67.9267 42.7524 68.043 42.6223 68.1284C42.4922 68.2109 42.3443 68.2521 42.1787 68.2521ZM42.3562 67.7882C42.5129 67.7882 42.6386 67.7279 42.7332 67.6071C42.8279 67.4834 42.8752 67.3096 42.8752 67.0857C42.8752 66.8737 42.8279 66.7102 42.7332 66.5953C42.6415 66.4775 42.5188 66.4186 42.365 66.4186C42.1994 66.4186 42.0693 66.4775 41.9747 66.5953C41.883 66.7102 41.8372 66.8796 41.8372 67.1034C41.8372 67.3273 41.883 67.4981 41.9747 67.6159C42.0664 67.7308 42.1935 67.7882 42.3562 67.7882Z" fill="#BAE7FF"/>
<path d="M44.8179 65.0313V67.0062L45.776 65.9989H46.468L45.6341 66.8648L46.5212 68.208H45.8337L45.2215 67.2315L44.8179 67.6601V68.208H44.2102V65.0313H44.8179Z" fill="#BAE7FF"/>
<path d="M47.2734 65.6808C47.022 65.6808 46.8963 65.5733 46.8963 65.3582C46.8963 65.1403 47.022 65.0313 47.2734 65.0313C47.5247 65.0313 47.6504 65.1403 47.6504 65.3582C47.6504 65.5733 47.5247 65.6808 47.2734 65.6808ZM47.575 65.9989V68.3714C47.575 68.5629 47.5395 68.7161 47.4686 68.8309C47.4005 68.9487 47.3074 69.0327 47.1891 69.0828C47.0708 69.1328 46.9363 69.1579 46.7854 69.1579C46.676 69.1579 46.577 69.1446 46.4882 69.1181C46.3995 69.0945 46.3226 69.0607 46.2576 69.0165L46.3507 68.5835C46.3862 68.613 46.4306 68.6365 46.4838 68.6542C46.5341 68.6748 46.5932 68.6851 46.6612 68.6851C46.7529 68.6851 46.8268 68.6571 46.883 68.6012C46.9392 68.5482 46.9673 68.4524 46.9673 68.314V65.9989H47.575Z" fill="#BAE7FF"/>
<path d="M49.2927 65.2478C49.683 65.2478 49.9788 65.3803 50.1799 65.6454C50.3839 65.9076 50.4859 66.2728 50.4859 66.7411C50.4859 67.2566 50.378 67.638 50.1621 67.8854C49.9462 68.1299 49.6579 68.2521 49.2971 68.2521C49.0458 68.2521 48.8284 68.1991 48.6451 68.0931C48.4617 67.9871 48.3257 67.8251 48.237 67.6071L48.8003 67.3685C48.8328 67.4893 48.889 67.5865 48.9689 67.6601C49.0517 67.7308 49.1655 67.7661 49.3104 67.7661C49.5381 67.7661 49.6993 67.6778 49.7939 67.5011C49.8886 67.3243 49.9359 67.0813 49.9359 66.7721V66.7102H49.9181C49.8856 66.8162 49.8294 66.9017 49.7496 66.9665C49.6727 67.0313 49.584 67.0799 49.4834 67.1123C49.3829 67.1417 49.2794 67.1564 49.1729 67.1564C48.9866 67.1564 48.821 67.1196 48.6761 67.046C48.5342 66.9694 48.4218 66.8634 48.339 66.7279C48.2562 66.5924 48.2148 66.4319 48.2148 66.2463C48.2148 66.0401 48.2591 65.8634 48.3479 65.7161C48.4366 65.5659 48.5608 65.451 48.7205 65.3715C48.8831 65.289 49.0739 65.2478 49.2927 65.2478ZM49.2971 65.7426C49.1374 65.7426 49.0147 65.7868 48.929 65.8752C48.8432 65.9606 48.8003 66.0813 48.8003 66.2375C48.8003 66.3759 48.8447 66.4849 48.9334 66.5644C49.0251 66.641 49.1463 66.6793 49.2971 66.6793C49.442 66.6793 49.5603 66.6366 49.652 66.5511C49.7466 66.4657 49.7939 66.3538 49.7939 66.2154C49.7939 66.071 49.7466 65.9562 49.652 65.8707C49.5603 65.7853 49.442 65.7426 49.2971 65.7426Z" fill="#BAE7FF"/>
<path d="M52.0805 68.2521C51.7877 68.2521 51.5378 68.1918 51.3308 68.071C51.1268 67.9473 50.9863 67.7706 50.9094 67.5408L51.4861 67.289C51.5452 67.6041 51.7404 67.7617 52.0716 67.7617C52.2195 67.7617 52.3348 67.7234 52.4176 67.6469C52.5034 67.5673 52.5462 67.4628 52.5462 67.3332C52.5462 67.0857 52.3925 66.962 52.0849 66.962C52.0139 66.962 51.94 66.9665 51.8631 66.9753V66.5291C51.9075 66.5349 51.9578 66.5379 52.0139 66.5379C52.1795 66.5379 52.2978 66.504 52.3688 66.4363C52.4427 66.3685 52.4797 66.2625 52.4797 66.1182C52.4797 65.9974 52.4427 65.9046 52.3688 65.8398C52.2949 65.7721 52.1929 65.7382 52.0627 65.7382C51.9208 65.7382 51.8084 65.7735 51.7256 65.8442C51.6428 65.9149 51.5851 66.0195 51.5526 66.1579L51.007 65.9547C51.0602 65.7338 51.1859 65.56 51.3841 65.4334C51.5822 65.3067 51.8188 65.2434 52.0938 65.2434C52.4191 65.2434 52.666 65.317 52.8346 65.4643C53.0031 65.6115 53.0874 65.8001 53.0874 66.0298C53.0874 66.1889 53.0564 66.3185 52.9943 66.4186C52.9322 66.5187 52.8582 66.5939 52.7725 66.6439C52.6867 66.694 52.6083 66.7235 52.5374 66.7323V66.7455C52.6261 66.7485 52.7178 66.7721 52.8124 66.8162C52.907 66.8604 52.9869 66.9282 53.0519 67.0195C53.117 67.1108 53.1495 67.2271 53.1495 67.3685C53.1495 67.5482 53.1022 67.7043 53.0076 67.8368C52.9159 67.9694 52.7902 68.0725 52.6305 68.1461C52.4708 68.2168 52.2875 68.2521 52.0805 68.2521Z" fill="#BAE7FF"/>
<path d="M54.768 65.2478C55.1584 65.2478 55.4541 65.3803 55.6552 65.6454C55.8592 65.9076 55.9613 66.2728 55.9613 66.7411C55.9613 67.2566 55.8533 67.638 55.6374 67.8854C55.4216 68.1299 55.1332 68.2521 54.7724 68.2521C54.5211 68.2521 54.3037 68.1991 54.1204 68.0931C53.937 67.9871 53.801 67.8251 53.7123 67.6071L54.2756 67.3685C54.3082 67.4893 54.3644 67.5865 54.4442 67.6601C54.527 67.7308 54.6409 67.7661 54.7858 67.7661C55.0135 67.7661 55.1746 67.6778 55.2693 67.5011C55.3639 67.3243 55.4112 67.0813 55.4112 66.7721V66.7102H55.3935C55.3609 66.8162 55.3048 66.9017 55.2249 66.9665C55.148 67.0313 55.0593 67.0799 54.9588 67.1123C54.8582 67.1417 54.7547 67.1564 54.6482 67.1564C54.4619 67.1564 54.2963 67.1196 54.1514 67.046C54.0095 66.9694 53.8971 66.8634 53.8143 66.7279C53.7315 66.5924 53.6901 66.4319 53.6901 66.2463C53.6901 66.0401 53.7345 65.8634 53.8232 65.7161C53.9119 65.5659 54.0361 65.451 54.1958 65.3715C54.3584 65.289 54.5492 65.2478 54.768 65.2478ZM54.7724 65.7426C54.6128 65.7426 54.49 65.7868 54.4043 65.8752C54.3185 65.9606 54.2756 66.0813 54.2756 66.2375C54.2756 66.3759 54.32 66.4849 54.4087 66.5644C54.5004 66.641 54.6216 66.6793 54.7724 66.6793C54.9174 66.6793 55.0356 66.6366 55.1273 66.5511C55.2219 66.4657 55.2693 66.3538 55.2693 66.2154C55.2693 66.071 55.2219 65.9562 55.1273 65.8707C55.0356 65.7853 54.9174 65.7426 54.7724 65.7426Z" fill="#BAE7FF"/>
<path d="M57.7009 68.2521C57.3254 68.2521 57.0356 68.1255 56.8315 67.8722C56.6304 67.6159 56.5299 67.2419 56.5299 66.75C56.5299 66.2581 56.6304 65.8855 56.8315 65.6322C57.0356 65.3759 57.3254 65.2478 57.7009 65.2478C58.0765 65.2478 58.3648 65.3759 58.5659 65.6322C58.77 65.8855 58.872 66.2581 58.872 66.75C58.872 67.2419 58.77 67.6159 58.5659 67.8722C58.3648 68.1255 58.0765 68.2521 57.7009 68.2521ZM57.7009 67.7617C57.8902 67.7617 58.0307 67.6807 58.1223 67.5187C58.214 67.3538 58.2599 67.0975 58.2599 66.75C58.2599 66.4024 58.214 66.1476 58.1223 65.9856C58.0307 65.8207 57.8902 65.7382 57.7009 65.7382C57.5117 65.7382 57.3712 65.8207 57.2795 65.9856C57.1879 66.1476 57.142 66.4024 57.142 66.75C57.142 67.0975 57.1879 67.3538 57.2795 67.5187C57.3712 67.6807 57.5117 67.7617 57.7009 67.7617Z" fill="#BAE7FF"/>
<path d="M17.2363 45.1353C17.2363 47.8327 15.0398 50.0262 12.3218 50.0262C9.60386 50.0262 7.40735 47.8327 7.40735 45.1353C7.40735 42.4378 9.60386 40.2443 12.3218 40.2443C15.0398 40.2443 17.2363 42.4378 17.2363 45.1353Z" fill="#69C0FF" stroke="#BAE7FF" stroke-width="2"/>
<ellipse cx="12.3218" cy="45.1352" rx="1.97149" ry="1.96364" fill="#BAE7FF"/>
<path d="M148.24 32.3716C152.012 32.3716 153.897 32.3716 155.069 33.5385C156.24 34.7054 156.24 36.5835 156.24 40.3398V68.5853C156.24 72.3415 156.24 74.2196 155.069 75.3865C153.897 76.5534 152.012 76.5534 148.24 76.5534L93.7596 76.5534C89.9884 76.5534 88.1028 76.5534 86.9312 75.3865C85.7596 74.2196 85.7596 72.3415 85.7596 68.5853L85.7596 40.3397C85.7596 36.5835 85.7596 34.7054 86.9312 33.5385C88.1028 32.3716 89.9884 32.3716 93.7596 32.3716L148.24 32.3716Z" fill="url(#paint1_linear)"/>
<rect x="134.061" y="37.2807" width="3.94298" height="3.92727" fill="#69C0FF"/>
<rect x="134.061" y="49.0625" width="3.94298" height="3.92727" fill="#69C0FF"/>
<rect x="139.975" y="43.1716" width="1.9715" height="1.96364" fill="#69C0FF"/>
<rect x="141.947" y="43.1716" width="1.97148" height="1.96364" fill="#69C0FF"/>
<rect x="143.918" y="41.208" width="1.97148" height="1.96363" fill="#69C0FF"/>
<rect x="139.975" y="45.1352" width="1.9715" height="1.96364" fill="#69C0FF"/>
<rect x="138.004" y="43.1716" width="1.97148" height="1.96364" fill="#69C0FF"/>
<rect x="143.918" y="45.1352" width="1.97148" height="3.92728" fill="#69C0FF"/>
<rect x="141.947" y="47.0989" width="1.97148" height="1.96363" fill="#69C0FF"/>
<rect x="139.975" y="41.208" width="1.9715" height="1.96363" fill="#69C0FF"/>
<rect x="138.004" y="47.0989" width="1.97148" height="1.96363" fill="#69C0FF"/>
<rect x="145.89" y="37.2807" width="3.94298" height="3.92727" fill="#69C0FF"/>
<rect x="145.89" y="49.0625" width="3.94298" height="3.92727" fill="#69C0FF"/>
<path d="M102.996 45.1353C102.996 47.8327 100.799 50.0262 98.0815 50.0262C95.3635 50.0262 93.167 47.8327 93.167 45.1353C93.167 42.4378 95.3635 40.2443 98.0815 40.2443C100.799 40.2443 102.996 42.4378 102.996 45.1353Z" fill="#69C0FF" stroke="#BAE7FF" stroke-width="2"/>
<ellipse cx="98.0815" cy="45.1352" rx="1.97149" ry="1.96364" fill="#BAE7FF"/>
<path d="M234 32.3716C237.771 32.3716 239.657 32.3716 240.828 33.5385C242 34.7054 242 36.5835 242 40.3398V68.5853C242 72.3415 242 74.2196 240.828 75.3865C239.657 76.5534 237.771 76.5534 234 76.5534L179.519 76.5534C175.748 76.5534 173.862 76.5534 172.691 75.3865C171.519 74.2196 171.519 72.3415 171.519 68.5853L171.519 40.3397C171.519 36.5835 171.519 34.7054 172.691 33.5385C173.862 32.3716 175.748 32.3716 179.519 32.3716L234 32.3716Z" fill="url(#paint2_linear)"/>
<rect x="235.593" y="37.2807" width="3.92727" height="3.94296" transform="rotate(90 235.593 37.2807)" fill="#69C0FF"/>
<rect x="223.764" y="37.2807" width="3.92727" height="3.94298" transform="rotate(90 223.764 37.2807)" fill="#69C0FF"/>
<rect x="229.678" y="43.1716" width="1.96364" height="1.97148" transform="rotate(90 229.678 43.1716)" fill="#69C0FF"/>
<rect x="229.678" y="45.1352" width="1.96364" height="1.97148" transform="rotate(90 229.678 45.1352)" fill="#69C0FF"/>
<rect x="231.65" y="47.0989" width="1.96363" height="1.9715" transform="rotate(90 231.65 47.0989)" fill="#69C0FF"/>
<rect x="227.707" y="43.1716" width="1.96364" height="1.9715" transform="rotate(90 227.707 43.1716)" fill="#69C0FF"/>
<rect x="229.678" y="41.208" width="1.96363" height="1.97148" transform="rotate(90 229.678 41.208)" fill="#69C0FF"/>
<rect x="227.707" y="47.0989" width="1.96364" height="3.94298" transform="rotate(90 227.707 47.0989)" fill="#69C0FF"/>
<rect x="225.735" y="45.1352" width="1.96364" height="1.97148" transform="rotate(90 225.735 45.1352)" fill="#69C0FF"/>
<rect x="231.65" y="43.1716" width="1.96364" height="1.9715" transform="rotate(90 231.65 43.1716)" fill="#69C0FF"/>
<rect x="225.735" y="41.208" width="1.96363" height="1.97148" transform="rotate(90 225.735 41.208)" fill="#69C0FF"/>
<rect x="235.593" y="49.0625" width="3.92727" height="3.94296" transform="rotate(90 235.593 49.0625)" fill="#69C0FF"/>
<rect x="223.764" y="49.0625" width="3.92727" height="3.94298" transform="rotate(90 223.764 49.0625)" fill="#69C0FF"/>
<rect x="181.377" y="64.2807" width="4.92871" height="4.90909" rx="2.45454" fill="#BAE7FF"/>
<path d="M190.18 68.2521C189.805 68.2521 189.515 68.1255 189.311 67.8722C189.11 67.6159 189.009 67.2418 189.009 66.7499C189.009 66.2581 189.11 65.8855 189.311 65.6321C189.515 65.3759 189.805 65.2478 190.18 65.2478C190.556 65.2478 190.844 65.3759 191.045 65.6321C191.249 65.8855 191.351 66.2581 191.351 66.7499C191.351 67.2418 191.249 67.6159 191.045 67.8722C190.844 68.1255 190.556 68.2521 190.18 68.2521ZM190.18 67.7617C190.37 67.7617 190.51 67.6807 190.602 67.5187C190.693 67.3538 190.739 67.0975 190.739 66.7499C190.739 66.4024 190.693 66.1476 190.602 65.9856C190.51 65.8207 190.37 65.7382 190.18 65.7382C189.991 65.7382 189.851 65.8207 189.759 65.9856C189.667 66.1476 189.621 66.4024 189.621 66.7499C189.621 67.0975 189.667 67.3538 189.759 67.5187C189.851 67.6807 189.991 67.7617 190.18 67.7617Z" fill="#BAE7FF"/>
<path d="M192.49 65.9989L192.956 66.7676L193.426 65.9989H194.114L193.329 67.0901L194.127 68.2079H193.422L192.929 67.4082L192.428 68.2079H191.741L192.557 67.0901L191.781 65.9989H192.49Z" fill="#BAE7FF"/>
<path d="M195.703 68.2521C195.328 68.2521 195.038 68.1255 194.834 67.8722C194.633 67.6159 194.532 67.2418 194.532 66.7499C194.532 66.2581 194.633 65.8855 194.834 65.6321C195.038 65.3759 195.328 65.2478 195.703 65.2478C196.079 65.2478 196.367 65.3759 196.568 65.6321C196.772 65.8855 196.874 66.2581 196.874 66.7499C196.874 67.2418 196.772 67.6159 196.568 67.8722C196.367 68.1255 196.079 68.2521 195.703 68.2521ZM195.703 67.7617C195.893 67.7617 196.033 67.6807 196.125 67.5187C196.216 67.3538 196.262 67.0975 196.262 66.7499C196.262 66.4024 196.216 66.1476 196.125 65.9856C196.033 65.8207 195.893 65.7382 195.703 65.7382C195.514 65.7382 195.374 65.8207 195.282 65.9856C195.19 66.1476 195.144 66.4024 195.144 66.7499C195.144 67.0975 195.19 67.3538 195.282 67.5187C195.374 67.6807 195.514 67.7617 195.703 67.7617Z" fill="#BAE7FF"/>
<path d="M197.49 68.2079V67.7926C197.845 67.557 198.129 67.3493 198.341 67.1697C198.554 66.987 198.707 66.8192 198.798 66.666C198.893 66.5128 198.94 66.3611 198.94 66.2109C198.94 66.0754 198.899 65.965 198.816 65.8796C198.733 65.7912 198.617 65.747 198.466 65.747C198.3 65.747 198.17 65.803 198.075 65.9149C197.984 66.0268 197.933 66.1859 197.925 66.3921L197.397 66.1933C197.414 65.8958 197.522 65.6645 197.72 65.4996C197.922 65.3317 198.182 65.2478 198.501 65.2478C198.738 65.2478 198.933 65.2919 199.087 65.3803C199.243 65.4657 199.36 65.5791 199.437 65.7205C199.517 65.8619 199.557 66.0136 199.557 66.1756C199.557 66.4554 199.45 66.7175 199.238 66.962C199.028 67.2035 198.701 67.4598 198.257 67.7308V67.7352C198.322 67.7322 198.408 67.7293 198.514 67.7264C198.624 67.7205 198.717 67.7175 198.794 67.7175H199.601V68.2079H197.49Z" fill="#BAE7FF"/>
<path d="M201.228 68.2521C200.936 68.2521 200.686 68.1917 200.479 68.071C200.275 67.9473 200.134 67.7705 200.057 67.5408L200.634 67.289C200.693 67.6041 200.888 67.7617 201.22 67.7617C201.367 67.7617 201.483 67.7234 201.566 67.6468C201.651 67.5673 201.694 67.4627 201.694 67.3331C201.694 67.0857 201.54 66.962 201.233 66.962C201.162 66.962 201.088 66.9664 201.011 66.9753V66.529C201.055 66.5349 201.106 66.5379 201.162 66.5379C201.328 66.5379 201.446 66.504 201.517 66.4363C201.591 66.3685 201.628 66.2625 201.628 66.1181C201.628 65.9974 201.591 65.9046 201.517 65.8398C201.443 65.7721 201.341 65.7382 201.211 65.7382C201.069 65.7382 200.956 65.7735 200.874 65.8442C200.791 65.9149 200.733 66.0195 200.701 66.1579L200.155 65.9547C200.208 65.7338 200.334 65.56 200.532 65.4333C200.73 65.3067 200.967 65.2433 201.242 65.2433C201.567 65.2433 201.814 65.317 201.983 65.4643C202.151 65.6115 202.235 65.8 202.235 66.0298C202.235 66.1888 202.204 66.3184 202.142 66.4186C202.08 66.5187 202.006 66.5938 201.92 66.6439C201.835 66.694 201.756 66.7234 201.685 66.7323V66.7455C201.774 66.7485 201.866 66.772 201.96 66.8162C202.055 66.8604 202.135 66.9281 202.2 67.0194C202.265 67.1108 202.297 67.2271 202.297 67.3685C202.297 67.5482 202.25 67.7043 202.156 67.8368C202.064 67.9694 201.938 68.0724 201.778 68.1461C201.619 68.2168 201.435 68.2521 201.228 68.2521Z" fill="#BAE7FF"/>
<path d="M204.373 65.9989V66.4495H203.699V68.2079H203.091V66.4495H202.705V65.9989H203.091V65.7338C203.091 65.4834 203.169 65.2964 203.326 65.1727C203.483 65.0489 203.681 64.9871 203.92 64.9871C204.024 64.9871 204.117 64.9989 204.2 65.0224C204.283 65.0431 204.346 65.0696 204.391 65.102L204.306 65.504C204.274 65.4834 204.237 65.4672 204.195 65.4554C204.154 65.4436 204.105 65.4377 204.049 65.4377C203.934 65.4377 203.842 65.4643 203.774 65.5173C203.706 65.5673 203.672 65.6542 203.672 65.7779V65.9989H204.373Z" fill="#BAE7FF"/>
<path d="M205.816 68.2521C205.467 68.2521 205.188 68.152 204.978 67.9517C204.768 67.7484 204.663 67.4657 204.663 67.1034C204.663 66.8619 204.71 66.6557 204.805 66.4849C204.9 66.314 205.031 66.1829 205.2 66.0916C205.371 66.0003 205.567 65.9547 205.785 65.9547C206.01 65.9547 206.201 66.0003 206.358 66.0916C206.514 66.18 206.634 66.3022 206.717 66.4583C206.8 66.6115 206.841 66.7868 206.841 66.9841C206.841 67.043 206.84 67.099 206.837 67.152C206.834 67.205 206.829 67.2521 206.823 67.2934H205.258C205.281 67.4642 205.34 67.5923 205.435 67.6778C205.533 67.7602 205.658 67.8015 205.812 67.8015C205.942 67.8015 206.047 67.7764 206.127 67.7264C206.207 67.6763 206.269 67.6071 206.313 67.5187L206.797 67.7043C206.726 67.878 206.602 68.0135 206.424 68.1107C206.247 68.205 206.044 68.2521 205.816 68.2521ZM205.781 66.4009C205.494 66.4009 205.321 66.5585 205.262 66.8737H206.26C206.242 66.7205 206.192 66.6041 206.109 66.5246C206.029 66.4421 205.92 66.4009 205.781 66.4009Z" fill="#BAE7FF"/>
<path d="M208.749 68.2079V67.5231H207.321V67.1255C207.335 67.096 207.356 67.0607 207.383 67.0194C207.412 66.9753 207.445 66.9252 207.48 66.8692L208.572 65.2919H209.303V67.0813H209.778V67.5231H209.303V68.2079H208.749ZM207.844 67.0813H208.753V66.1181C208.753 66.0533 208.755 65.9871 208.758 65.9193C208.761 65.8516 208.764 65.7824 208.767 65.7117H208.758C208.725 65.7765 208.685 65.8472 208.638 65.9237C208.594 66.0003 208.552 66.0666 208.514 66.1226L207.902 66.9974C207.881 67.0268 207.862 67.0548 207.844 67.0813Z" fill="#BAE7FF"/>
<path d="M211.645 68.2079V67.5231H210.216V67.1255C210.231 67.096 210.252 67.0607 210.279 67.0194C210.308 66.9753 210.341 66.9252 210.376 66.8692L211.467 65.2919H212.199V67.0813H212.674V67.5231H212.199V68.2079H211.645ZM210.74 67.0813H211.649V66.1181C211.649 66.0533 211.651 65.9871 211.654 65.9193C211.657 65.8516 211.66 65.7824 211.663 65.7117H211.654C211.621 65.7765 211.581 65.8472 211.534 65.9237C211.49 66.0003 211.448 66.0666 211.41 66.1226L210.798 66.9974C210.777 67.0268 210.758 67.0548 210.74 67.0813Z" fill="#BAE7FF"/>
<path d="M213.542 65.6807C213.291 65.6807 213.165 65.5732 213.165 65.3582C213.165 65.1403 213.291 65.0313 213.542 65.0313C213.794 65.0313 213.92 65.1403 213.92 65.3582C213.92 65.5732 213.794 65.6807 213.542 65.6807ZM213.844 65.9989V68.3714C213.844 68.5629 213.809 68.716 213.738 68.8309C213.67 68.9487 213.576 69.0327 213.458 69.0827C213.34 69.1328 213.205 69.1578 213.055 69.1578C212.945 69.1578 212.846 69.1446 212.757 69.1181C212.669 69.0945 212.592 69.0606 212.527 69.0165L212.62 68.5835C212.655 68.6129 212.7 68.6365 212.753 68.6542C212.803 68.6748 212.862 68.6851 212.93 68.6851C213.022 68.6851 213.096 68.6571 213.152 68.6012C213.208 68.5481 213.236 68.4524 213.236 68.314V65.9989H213.844Z" fill="#BAE7FF"/>
<path d="M215.415 68.2521C215.232 68.2521 215.068 68.2065 214.923 68.1152C214.781 68.0238 214.669 67.8942 214.586 67.7264C214.506 67.5555 214.466 67.3493 214.466 67.1078C214.466 66.8633 214.509 66.6557 214.595 66.4849C214.681 66.3111 214.796 66.18 214.941 66.0916C215.089 66.0003 215.254 65.9547 215.438 65.9547C215.597 65.9547 215.735 65.993 215.85 66.0695C215.965 66.1461 216.053 66.2477 216.112 66.3744V65.0313H216.72V68.2079H216.174L216.147 67.7794C216.085 67.9266 215.989 68.043 215.859 68.1284C215.729 68.2109 215.581 68.2521 215.415 68.2521ZM215.593 67.7882C215.75 67.7882 215.875 67.7278 215.97 67.6071C216.065 67.4834 216.112 67.3096 216.112 67.0857C216.112 66.8737 216.065 66.7102 215.97 66.5953C215.878 66.4775 215.755 66.4186 215.602 66.4186C215.436 66.4186 215.306 66.4775 215.211 66.5953C215.12 66.7102 215.074 66.8795 215.074 67.1034C215.074 67.3272 215.12 67.4981 215.211 67.6159C215.303 67.7308 215.43 67.7882 215.593 67.7882Z" fill="#BAE7FF"/>
<path d="M218.055 65.0313V67.0062L219.013 65.9989H219.705L218.871 66.8648L219.758 68.2079H219.07L218.458 67.2315L218.055 67.6601V68.2079H217.447V65.0313H218.055Z" fill="#BAE7FF"/>
<path d="M220.51 65.6807C220.259 65.6807 220.133 65.5732 220.133 65.3582C220.133 65.1403 220.259 65.0313 220.51 65.0313C220.761 65.0313 220.887 65.1403 220.887 65.3582C220.887 65.5732 220.761 65.6807 220.51 65.6807ZM220.812 65.9989V68.3714C220.812 68.5629 220.776 68.716 220.705 68.8309C220.637 68.9487 220.544 69.0327 220.426 69.0827C220.307 69.1328 220.173 69.1578 220.022 69.1578C219.913 69.1578 219.814 69.1446 219.725 69.1181C219.636 69.0945 219.559 69.0606 219.494 69.0165L219.587 68.5835C219.623 68.6129 219.667 68.6365 219.72 68.6542C219.771 68.6748 219.83 68.6851 219.898 68.6851C219.99 68.6851 220.064 68.6571 220.12 68.6012C220.176 68.5481 220.204 68.4524 220.204 68.314V65.9989H220.812Z" fill="#BAE7FF"/>
<path d="M222.529 65.2478C222.92 65.2478 223.215 65.3803 223.417 65.6454C223.621 65.9075 223.723 66.2728 223.723 66.7411C223.723 67.2566 223.615 67.638 223.399 67.8854C223.183 68.1299 222.895 68.2521 222.534 68.2521C222.282 68.2521 222.065 68.1991 221.882 68.0931C221.698 67.987 221.562 67.825 221.474 67.6071L222.037 67.3685C222.07 67.4892 222.126 67.5864 222.206 67.6601C222.288 67.7308 222.402 67.7661 222.547 67.7661C222.775 67.7661 222.936 67.6778 223.031 67.501C223.125 67.3243 223.173 67.0813 223.173 66.772V66.7102H223.155C223.122 66.8162 223.066 66.9016 222.986 66.9664C222.909 67.0312 222.821 67.0798 222.72 67.1122C222.62 67.1417 222.516 67.1564 222.41 67.1564C222.223 67.1564 222.058 67.1196 221.913 67.046C221.771 66.9694 221.658 66.8633 221.576 66.7279C221.493 66.5924 221.451 66.4318 221.451 66.2463C221.451 66.0401 221.496 65.8634 221.585 65.7161C221.673 65.5659 221.797 65.451 221.957 65.3715C222.12 65.289 222.311 65.2478 222.529 65.2478ZM222.534 65.7426C222.374 65.7426 222.251 65.7868 222.166 65.8751C222.08 65.9606 222.037 66.0813 222.037 66.2374C222.037 66.3759 222.081 66.4849 222.17 66.5644C222.262 66.641 222.383 66.6793 222.534 66.6793C222.679 66.6793 222.797 66.6365 222.889 66.5511C222.983 66.4657 223.031 66.3538 223.031 66.2153C223.031 66.071 222.983 65.9561 222.889 65.8707C222.797 65.7853 222.679 65.7426 222.534 65.7426Z" fill="#BAE7FF"/>
<path d="M225.317 68.2521C225.024 68.2521 224.775 68.1917 224.567 68.071C224.363 67.9473 224.223 67.7705 224.146 67.5408L224.723 67.289C224.782 67.6041 224.977 67.7617 225.308 67.7617C225.456 67.7617 225.571 67.7234 225.654 67.6468C225.74 67.5673 225.783 67.4627 225.783 67.3331C225.783 67.0857 225.629 66.962 225.322 66.962C225.251 66.962 225.177 66.9664 225.1 66.9753V66.529C225.144 66.5349 225.194 66.5379 225.251 66.5379C225.416 66.5379 225.535 66.504 225.605 66.4363C225.679 66.3685 225.716 66.2625 225.716 66.1181C225.716 65.9974 225.679 65.9046 225.605 65.8398C225.532 65.7721 225.43 65.7382 225.299 65.7382C225.157 65.7382 225.045 65.7735 224.962 65.8442C224.879 65.9149 224.822 66.0195 224.789 66.1579L224.244 65.9547C224.297 65.7338 224.423 65.56 224.621 65.4333C224.819 65.3067 225.055 65.2433 225.33 65.2433C225.656 65.2433 225.903 65.317 226.071 65.4643C226.24 65.6115 226.324 65.8 226.324 66.0298C226.324 66.1888 226.293 66.3184 226.231 66.4186C226.169 66.5187 226.095 66.5938 226.009 66.6439C225.923 66.694 225.845 66.7234 225.774 66.7323V66.7455C225.863 66.7485 225.954 66.772 226.049 66.8162C226.144 66.8604 226.224 66.9281 226.289 67.0194C226.354 67.1108 226.386 67.2271 226.386 67.3685C226.386 67.5482 226.339 67.7043 226.244 67.8368C226.153 67.9694 226.027 68.0724 225.867 68.1461C225.708 68.2168 225.524 68.2521 225.317 68.2521Z" fill="#BAE7FF"/>
<path d="M228.005 65.2478C228.395 65.2478 228.691 65.3803 228.892 65.6454C229.096 65.9075 229.198 66.2728 229.198 66.7411C229.198 67.2566 229.09 67.638 228.874 67.8854C228.658 68.1299 228.37 68.2521 228.009 68.2521C227.758 68.2521 227.54 68.1991 227.357 68.0931C227.174 67.987 227.038 67.825 226.949 67.6071L227.512 67.3685C227.545 67.4892 227.601 67.5864 227.681 67.6601C227.764 67.7308 227.878 67.7661 228.022 67.7661C228.25 67.7661 228.411 67.6778 228.506 67.501C228.601 67.3243 228.648 67.0813 228.648 66.772V66.7102H228.63C228.598 66.8162 228.541 66.9016 228.462 66.9664C228.385 67.0312 228.296 67.0798 228.195 67.1122C228.095 67.1417 227.991 67.1564 227.885 67.1564C227.699 67.1564 227.533 67.1196 227.388 67.046C227.246 66.9694 227.134 66.8633 227.051 66.7279C226.968 66.5924 226.927 66.4318 226.927 66.2463C226.927 66.0401 226.971 65.8634 227.06 65.7161C227.149 65.5659 227.273 65.451 227.432 65.3715C227.595 65.289 227.786 65.2478 228.005 65.2478ZM228.009 65.7426C227.849 65.7426 227.727 65.7868 227.641 65.8751C227.555 65.9606 227.512 66.0813 227.512 66.2374C227.512 66.3759 227.557 66.4849 227.645 66.5644C227.737 66.641 227.858 66.6793 228.009 66.6793C228.154 66.6793 228.272 66.6365 228.364 66.5511C228.459 66.4657 228.506 66.3538 228.506 66.2153C228.506 66.071 228.459 65.9561 228.364 65.8707C228.272 65.7853 228.154 65.7426 228.009 65.7426Z" fill="#BAE7FF"/>
<path d="M230.938 68.2521C230.562 68.2521 230.272 68.1255 230.068 67.8722C229.867 67.6159 229.767 67.2418 229.767 66.7499C229.767 66.2581 229.867 65.8855 230.068 65.6321C230.272 65.3759 230.562 65.2478 230.938 65.2478C231.313 65.2478 231.602 65.3759 231.803 65.6321C232.007 65.8855 232.109 66.2581 232.109 66.7499C232.109 67.2418 232.007 67.6159 231.803 67.8722C231.602 68.1255 231.313 68.2521 230.938 68.2521ZM230.938 67.7617C231.127 67.7617 231.267 67.6807 231.359 67.5187C231.451 67.3538 231.497 67.0975 231.497 66.7499C231.497 66.4024 231.451 66.1476 231.359 65.9856C231.267 65.8207 231.127 65.7382 230.938 65.7382C230.748 65.7382 230.608 65.8207 230.516 65.9856C230.425 66.1476 230.379 66.4024 230.379 66.7499C230.379 67.0975 230.425 67.3538 230.516 67.5187C230.608 67.6807 230.748 67.7617 230.938 67.7617Z" fill="#BAE7FF"/>
<path d="M188.756 45.1353C188.756 47.8327 186.559 50.0262 183.841 50.0262C181.123 50.0262 178.927 47.8327 178.927 45.1353C178.927 42.4378 181.123 40.2443 183.841 40.2443C186.559 40.2443 188.756 42.4378 188.756 45.1353Z" fill="#69C0FF" stroke="#BAE7FF" stroke-width="2"/>
<ellipse cx="183.841" cy="45.1352" rx="1.97148" ry="1.96364" fill="#BAE7FF"/>
<path d="M79.3523 54.9818H162.155V104.016C162.155 106.216 160.364 108 158.155 108H83.3523C81.1432 108 79.3523 106.216 79.3523 104.016V54.9818Z" fill="url(#paint3_linear)"/>
<path d="M79.3523 54.9818H162.155V104.016C162.155 106.216 160.364 108 158.155 108H83.3523C81.1432 108 79.3523 106.216 79.3523 104.016V54.9818Z" fill="url(#paint4_linear)" fill-opacity="0.75"/>
<path d="M79.3523 54.9818H162.155V104.016C162.155 106.216 160.364 108 158.155 108H83.3523C81.1432 108 79.3523 106.216 79.3523 104.016V54.9818Z" fill="url(#paint5_linear)" fill-opacity="0.65"/>
<path d="M79.3523 54.9818H162.155V104.016C162.155 106.216 160.364 108 158.155 108H83.3523C81.1432 108 79.3523 106.216 79.3523 104.016V54.9818Z" fill="url(#paint6_linear)"/>
<path fill-rule="evenodd" clip-rule="evenodd" d="M109.664 101.618C110.344 101.618 110.896 101.069 110.896 100.391C110.896 99.7131 110.344 99.1636 109.664 99.1636C108.983 99.1636 108.432 99.7131 108.432 100.391C108.432 101.069 108.983 101.618 109.664 101.618ZM114.1 101.618C114.78 101.618 115.332 101.069 115.332 100.391C115.332 99.7131 114.78 99.1636 114.1 99.1636C113.419 99.1636 112.868 99.7131 112.868 100.391C112.868 101.069 113.419 101.618 114.1 101.618ZM119.768 100.391C119.768 101.069 119.216 101.618 118.536 101.618C117.855 101.618 117.303 101.069 117.303 100.391C117.303 99.7131 117.855 99.1636 118.536 99.1636C119.216 99.1636 119.768 99.7131 119.768 100.391ZM122.971 101.618C123.652 101.618 124.204 101.069 124.204 100.391C124.204 99.7131 123.652 99.1636 122.971 99.1636C122.291 99.1636 121.739 99.7131 121.739 100.391C121.739 101.069 122.291 101.618 122.971 101.618ZM128.64 100.391C128.64 101.069 128.088 101.618 127.407 101.618C126.727 101.618 126.175 101.069 126.175 100.391C126.175 99.7131 126.727 99.1636 127.407 99.1636C128.088 99.1636 128.64 99.7131 128.64 100.391ZM131.843 101.618C132.524 101.618 133.075 101.069 133.075 100.391C133.075 99.7131 132.524 99.1636 131.843 99.1636C131.163 99.1636 130.611 99.7131 130.611 100.391C130.611 101.069 131.163 101.618 131.843 101.618Z" fill="#63FCA0"/>
<path d="M121.155 83.6398L121.155 83.6396L127.413 78.5179C127.494 78.4512 127.542 78.3486 127.542 78.2399V75.9797C127.542 75.7964 127.341 75.6933 127.204 75.806L120.756 81.083L114.303 75.8015C114.166 75.6889 113.965 75.792 113.965 75.9753V78.24C113.965 78.3487 114.013 78.4513 114.094 78.518L120.352 83.6401L120.353 83.6404C120.466 83.7322 120.609 83.7782 120.753 83.7782C120.897 83.7782 121.043 83.7327 121.155 83.6398Z" fill="#9299A6"/>
<path fill-rule="evenodd" clip-rule="evenodd" d="M130.634 69.7148L130.634 69.7147L121.202 66.3387C121.077 66.2937 120.914 66.2727 120.756 66.2727C120.598 66.2727 120.435 66.2937 120.31 66.3387L110.879 69.7145L110.879 69.7146C110.744 69.7625 110.626 69.8663 110.542 69.9903C110.458 70.1144 110.403 70.266 110.403 70.416V84.4795C110.403 84.6249 110.447 84.787 110.515 84.9318C110.582 85.0767 110.676 85.213 110.784 85.3035L110.785 85.3038L120.352 93.1346L120.353 93.1349C120.466 93.2268 120.609 93.2727 120.753 93.2727C120.897 93.2727 121.043 93.2272 121.155 93.1344L121.155 93.1341L130.722 85.3041L130.722 85.304C130.83 85.2148 130.925 85.0789 130.992 84.934C131.06 84.789 131.104 84.6262 131.104 84.4795V70.417C131.107 70.2664 131.053 70.1153 130.97 69.9916C130.887 69.8676 130.768 69.7642 130.634 69.7148ZM128.943 71.5169V83.8767L120.756 90.5775L112.569 83.8767V71.5169L120.756 68.585L128.943 71.5169Z" fill="#9299A6"/>
<g filter="url(#filter0_i)">
<rect x="79.3523" y="51.5455" width="82.8024" height="5.8909" rx="2.94545" fill="url(#paint7_linear)"/>
</g>
<path d="M95.1242 57.4364L90.1954 54.4909H101.531L114.593 57.4364H95.1242Z" fill="url(#paint8_linear)"/>
<path d="M144.411 57.4364L139.483 54.4909H150.819L162.155 57.4364H144.411Z" fill="url(#paint9_linear)"/>
<path d="M140.196 54.6987C139.772 54.5797 139.483 54.1906 139.483 53.7516V30.1909C139.483 19.7527 130.987 11.2909 120.507 11.2909C110.027 11.2909 101.532 19.7527 101.532 30.1909V53.746C101.532 54.1877 101.239 54.5783 100.811 54.6958C97.0187 55.7382 94.6331 55.7719 90.9025 54.7018C90.4814 54.581 90.1956 54.1934 90.1956 53.757V30.1909C90.1956 13.5169 103.767 0 120.507 0C137.248 0 150.819 13.5169 150.819 30.1909V53.7519C150.819 54.1908 150.53 54.5797 150.106 54.699C146.388 55.7452 143.991 55.7635 140.196 54.6987Z" fill="#B8BDC6"/>
<path d="M140.196 54.6987C139.772 54.5797 139.483 54.1906 139.483 53.7516V30.1909C139.483 19.7527 130.987 11.2909 120.507 11.2909C110.027 11.2909 101.532 19.7527 101.532 30.1909V53.746C101.532 54.1877 101.239 54.5783 100.811 54.6958C97.0187 55.7382 94.6331 55.7719 90.9025 54.7018C90.4814 54.581 90.1956 54.1934 90.1956 53.757V30.1909C90.1956 13.5169 103.767 0 120.507 0C137.248 0 150.819 13.5169 150.819 30.1909V53.7519C150.819 54.1908 150.53 54.5797 150.106 54.699C146.388 55.7452 143.991 55.7635 140.196 54.6987Z" fill="url(#paint10_radial)"/>
<path d="M140.196 54.6987C139.772 54.5797 139.483 54.1906 139.483 53.7516V30.1909C139.483 19.7527 130.987 11.2909 120.507 11.2909C110.027 11.2909 101.532 19.7527 101.532 30.1909V53.746C101.532 54.1877 101.239 54.5783 100.811 54.6958C97.0187 55.7382 94.6331 55.7719 90.9025 54.7018C90.4814 54.581 90.1956 54.1934 90.1956 53.757V30.1909C90.1956 13.5169 103.767 0 120.507 0C137.248 0 150.819 13.5169 150.819 30.1909V53.7519C150.819 54.1908 150.53 54.5797 150.106 54.699C146.388 55.7452 143.991 55.7635 140.196 54.6987Z" fill="url(#paint11_radial)"/>
<path d="M140.196 54.6987C139.772 54.5797 139.483 54.1906 139.483 53.7516V30.1909C139.483 19.7527 130.987 11.2909 120.507 11.2909C110.027 11.2909 101.532 19.7527 101.532 30.1909V53.746C101.532 54.1877 101.239 54.5783 100.811 54.6958C97.0187 55.7382 94.6331 55.7719 90.9025 54.7018C90.4814 54.581 90.1956 54.1934 90.1956 53.757V30.1909C90.1956 13.5169 103.767 0 120.507 0C137.248 0 150.819 13.5169 150.819 30.1909V53.7519C150.819 54.1908 150.53 54.5797 150.106 54.699C146.388 55.7452 143.991 55.7635 140.196 54.6987Z" fill="url(#paint12_linear)"/>
</g>
<defs>
<filter id="filter0_i" x="79.3523" y="51.5455" width="82.8024" height="5.8909" filterUnits="userSpaceOnUse" color-interpolation-filters="sRGB">
<feFlood flood-opacity="0" result="BackgroundImageFix"/>
<feBlend mode="normal" in="SourceGraphic" in2="BackgroundImageFix" result="shape"/>
<feColorMatrix in="SourceAlpha" type="matrix" values="0 0 0 0 0 0 0 0 0 0 0 0 0 0 0 0 0 0 127 0" result="hardAlpha"/>
<feOffset/>
<feGaussianBlur stdDeviation="2"/>
<feComposite in2="hardAlpha" operator="arithmetic" k2="-1" k3="1"/>
<feColorMatrix type="matrix" values="0 0 0 0 1 0 0 0 0 1 0 0 0 0 1 0 0 0 0.95 0"/>
<feBlend mode="normal" in2="shape" result="effect1_innerShadow"/>
</filter>
<linearGradient id="paint0_linear" x1="69.7414" y1="75.5716" x2="1.38384" y2="33.1094" gradientUnits="userSpaceOnUse">
<stop stop-color="#1890FF"/>
<stop offset="1" stop-color="#69C0FF"/>
</linearGradient>
<linearGradient id="paint1_linear" x1="124.5" y1="31.8726" x2="124.004" y2="76.6934" gradientUnits="userSpaceOnUse">
<stop stop-color="#1890FF"/>
<stop offset="1" stop-color="#69C0FF"/>
</linearGradient>
<linearGradient id="paint2_linear" x1="241.261" y1="75.5716" x2="172.903" y2="33.1094" gradientUnits="userSpaceOnUse">
<stop stop-color="#1890FF"/>
<stop offset="1" stop-color="#69C0FF"/>
</linearGradient>
<linearGradient id="paint3_linear" x1="120.754" y1="54.9818" x2="120.754" y2="139.173" gradientUnits="userSpaceOnUse">
<stop stop-color="#E1E4EB"/>
<stop offset="1" stop-color="#B8BDC6"/>
</linearGradient>
<linearGradient id="paint4_linear" x1="79.3523" y1="80.2636" x2="84.0201" y2="80.2636" gradientUnits="userSpaceOnUse">
<stop stop-color="white" stop-opacity="0"/>
<stop offset="0.14221" stop-color="white"/>
<stop offset="0.205303" stop-color="white"/>
<stop offset="1" stop-color="white" stop-opacity="0"/>
</linearGradient>
<linearGradient id="paint5_linear" x1="161.546" y1="80.2636" x2="130.118" y2="80.2636" gradientUnits="userSpaceOnUse">
<stop stop-color="#B8BDC6" stop-opacity="0.63"/>
<stop offset="0.0917979" stop-color="#9299A6"/>
<stop offset="0.248555" stop-color="#9299A6" stop-opacity="0.76"/>
<stop offset="1" stop-color="#9299A6" stop-opacity="0"/>
</linearGradient>
<linearGradient id="paint6_linear" x1="162" y1="78.1874" x2="160" y2="78.1874" gradientUnits="userSpaceOnUse">
<stop stop-color="#4D5461"/>
<stop offset="1" stop-color="#9299A6" stop-opacity="0"/>
</linearGradient>
<linearGradient id="paint7_linear" x1="120.754" y1="46.3909" x2="120.754" y2="57.4364" gradientUnits="userSpaceOnUse">
<stop stop-color="#B8BDC6"/>
<stop offset="1" stop-color="#EDF0F5"/>
</linearGradient>
<linearGradient id="paint8_linear" x1="101.039" y1="54.4909" x2="101.039" y2="57.4364" gradientUnits="userSpaceOnUse">
<stop stop-color="#B8BDC6"/>
<stop offset="1" stop-color="#B8BDC6" stop-opacity="0"/>
</linearGradient>
<linearGradient id="paint9_linear" x1="150.326" y1="54.4909" x2="150.326" y2="57.4364" gradientUnits="userSpaceOnUse">
<stop stop-color="#B8BDC6"/>
<stop offset="1" stop-color="#B8BDC6" stop-opacity="0"/>
</linearGradient>
<radialGradient id="paint10_radial" cx="0" cy="0" r="1" gradientUnits="userSpaceOnUse" gradientTransform="translate(102.764 5.4) rotate(68.5819) scale(56.6875 61.8647)">
<stop stop-color="white"/>
<stop offset="0.686712" stop-color="white" stop-opacity="0"/>
</radialGradient>
<radialGradient id="paint11_radial" cx="0" cy="0" r="1" gradientUnits="userSpaceOnUse" gradientTransform="translate(104.735 7.36364) rotate(58.3938) scale(8.93432 9.73931)">
<stop stop-color="white"/>
<stop offset="1" stop-color="white" stop-opacity="0"/>
</radialGradient>
<linearGradient id="paint12_linear" x1="115" y1="55.4911" x2="115" y2="48.3069" gradientUnits="userSpaceOnUse">
<stop stop-color="#9299A6"/>
<stop offset="1" stop-color="#E1E4EB" stop-opacity="0"/>
</linearGradient>
<clipPath id="clip0">
<rect width="242" height="108" fill="white"/>
</clipPath>
</defs>
</svg>
