<svg xmlns="http://www.w3.org/2000/svg" width="216" height="216" clip-rule="evenodd"><g><rect fill="none" id="canvas_background" height="218" width="218" y="-1" x="-1"/></g><g><title>Layer 1</title><g transform="matrix(0.26993,0,0,0.291003,0,0) " id="Artboard1"><rect id="svg_1" fill="none" height="600" width="800" y="0" x="0"/><clipPath transform="translate(0,-2.290919065475464) translate(0,2.290919065475464) translate(0,2.290919065475464) translate(0,-2.290919065475464) translate(0,-2.290919065475464) translate(0,-2.290919065475464) translate(0,-2.290919065475464) translate(0,-2.290919065475464) translate(0,-2.290919065475464) translate(0,-2.290919065475464) translate(0,-2.290919065475464) translate(0,-2.290919065475464) translate(0,-2.290919065475464) translate(0,-2.290919065475464) translate(0,-2.290919065475464) translate(0,-2.290919065475464) translate(0,-2.290919065475464) translate(0,-2.290919065475464) translate(0,-2.290919065475464) translate(0,-2.290919065475464) translate(0,-2.290919065475464) translate(0,-2.290919065475464) translate(0,-2.290919065475464) translate(0,-2.290919065475464) translate(0,-2.290919065475464) translate(0,-2.290919065475464) translate(0,-2.290919065475464) translate(0,-2.290919065475464) translate(0,-2.290919065475464) translate(0,-2.290919065475464) translate(0,-2.290919065475464) translate(0,-2.290919065475464) translate(0,-2.290919065475464) translate(0,-2.290919065475464) translate(0,-2.290919065475464) translate(0,-2.290919065475464) translate(0,-2.290919065475464) translate(0,-2.290919065475464) translate(0,-2.290919065475464) translate(0,-2.290919065475464) translate(0,-2.290919065475464) translate(0,-2.290919065475464) translate(0,-2.290919065475464) translate(0,-2.290919065475464) translate(0,-2.290919065475464) translate(0,-2.290919065475464) translate(0,-2.290919065475464) translate(0,-2.290919065475464) translate(0,-2.290919065475464) translate(0,-2.290919065475464) translate(0,-2.290919065475464) translate(0,-2.290919065475464) translate(0,-2.290919065475464) translate(0,-2.290919065475464) translate(0,-2.290919065475464) translate(0,-2.290919065475464) translate(0,-2.290919065475464) translate(0,-2.290919065475464) translate(0,-2.290919065475464) translate(0,-2.290919065475464) translate(0,-2.290919065475464) translate(0,-2.290919065475464) translate(0,-2.290919065475464) translate(0,-2.290919065475464) translate(0,-2.290919065475464) translate(0,-2.290919065475464) translate(0,-2.290919065475464) translate(0,-2.290919065475464) translate(0,-2.290919065475464) translate(0,-2.290919065475464) translate(0,-2.290919065475464) translate(0,-2.290919065475464) translate(0,-2.290919065475464) translate(0,-2.290919065475464) translate(0,-2.290919065475464) translate(0,2.290919065475464) translate(0,2.290919065475464) translate(0,2.290919065475464) translate(0,2.290919065475464) translate(0,2.290919065475464) translate(0,2.290919065475464) translate(0,2.290919065475464) translate(0,2.290919065475464) translate(0,2.290919065475464) translate(0,2.290919065475464) translate(0,2.290919065475464) translate(0,2.290919065475464) translate(0,2.290919065475464) translate(0,2.290919065475464) translate(0,2.290919065475464) translate(0,2.290919065475464) translate(0,2.290919065475464) translate(0,2.290919065475464) translate(0,2.290919065475464) translate(0,2.290919065475464) translate(0,2.290919065475464) translate(0,2.290919065475464) translate(0,2.290919065475464) translate(0,2.290919065475464) translate(0,2.290919065475464) translate(0,2.290919065475464) translate(0,2.290919065475464) translate(0,2.290919065475464) translate(0,2.290919065475464) translate(0,2.290919065475464) translate(0,2.290919065475464) translate(0,2.290919065475464) translate(0,2.290919065475464) translate(0,2.290919065475464) translate(0,2.290919065475464) translate(0,2.290919065475464) translate(0,2.290919065475464) translate(0,2.290919065475464) translate(0,2.290919065475464) translate(0,2.290919065475464) translate(0,2.290919065475464) translate(0,2.290919065475464) translate(0,2.290919065475464) translate(0,2.290919065475464) translate(0,2.290919065475464) translate(0,2.290919065475464) translate(0,2.290919065475464) translate(0,2.290919065475464) translate(0,2.290919065475464) translate(0,2.290919065475464) translate(0,2.290919065475464) translate(0,2.290919065475464) translate(0,2.290919065475464) translate(0,2.290919065475464) translate(0,2.290919065475464) translate(0,2.290919065475464) translate(0,2.290919065475464) translate(0,2.290919065475464) translate(0,2.290919065475464) translate(0,2.290919065475464) translate(0,2.290919065475464) translate(0,2.290919065475464) translate(0,2.290919065475464) translate(0,2.290919065475464) translate(0,2.290919065475464) translate(0,2.290919065475464) translate(0,2.290919065475464) translate(0,2.290919065475464) translate(0,2.290919065475464) translate(0,2.290919065475464) translate(0,2.290919065475464) " id="_clip1"><rect id="svg_2" height="600" width="800" y="0" x="0"/></clipPath><g id="svg_3" clip-path="url(#_clip1)"><g id="svg_4" transform="matrix(3.70466,0,0,3.43639,-40.2094,-22.1377) "><path id="svg_5" fill="rgb(100,54,255)" fill-rule="nonzero" d="m85,150c-7.049,-10.007 -17.358,-18.344 -26,-27c-3.694,-3.7 -9.644,-8.258 -9.758,-14c-0.076,-3.842 2.785,-6.963 4.758,-10l60,60c6.465,6.465 15.544,19.857 25,21.566c6.655,1.202 11.767,-4.356 16,-8.567l29,-28.999l30,-30c4.186,-4.186 10.679,-8.828 11.771,-15c1.814,-10.251 -9.424,-17.653 -15.771,-24l-50,-50c-5.772,-5.772 -13.228,-16.716 -22,-17.577c-6.763,-0.664 -11.704,5.288 -16,9.577l-25,25c-2.9,2.9 -6.882,8.712 -11,9.793c-3.234,0.85 -5.834,-2.786 -8,-4.581c-3.428,-2.84 -7.44,-4.749 -12,-3.98c-6.157,1.039 -10.839,7.607 -15,11.768l-27,27c-4.066,4.067 -10.16,8.483 -12.258,14c-3.989,10.489 9.978,19.719 16.258,26l28,28c3.866,3.864 8.079,9.386 14,9.718c6.336,0.354 10.892,-4.648 15,-8.718z"/></g></g></g></g></svg>