<svg viewBox="0 0 37 29" fill="none" class="Logo_Logo__3aa0J"><g id="编组"><path id="形状结合" fill-rule="evenodd" clip-rule="evenodd" d="M22.7574 7.45073C22.9164 7.20069 23.0607 6.92322 23.1821 6.62314C23.3914 6.10563 23.507 5.58906 23.5349 5.11864C23.6489 4.12589 23.4093 3.31961 22.8458 3.07939C22.2918 2.84326 21.5658 3.21322 20.9436 3.95945C20.9447 3.90996 20.9457 3.86047 20.9457 3.81042C20.9457 1.74134 20.0063 0.0637207 18.8475 0.0637207C17.6886 0.0637207 16.7493 1.74134 16.7493 3.81042C16.7493 3.95722 16.7544 4.1018 16.7637 4.24415C16.0587 3.27679 15.1321 2.78116 14.4702 3.10052C13.6424 3.50014 13.5423 5.02188 14.2467 6.49969C14.3647 6.74769 14.6296 7.17382 14.7733 7.38456C5.78771 8.8177 0.672425 16.1081 0.0284424 28.0733H5.05468C5.58468 18.2232 10.1626 12.6593 18.4329 12.83C26.0275 12.9868 31.8317 17.9735 31.7537 28.0733H36.7796C36.8714 16.1578 31.0151 9.30258 22.7574 7.45073ZM14.258 18.6449C13.6522 18.6449 13.1611 19.196 13.1611 19.8755V22.8981C13.1611 23.5778 13.6522 24.1287 14.258 24.1287C14.8636 24.1287 15.3546 23.5778 15.3546 22.8981V19.8755C15.3546 19.196 14.8636 18.6449 14.258 18.6449ZM21.9352 19.8755C21.9352 19.196 22.4263 18.6449 23.0318 18.6449C23.6376 18.6449 24.1287 19.196 24.1287 19.8755V22.8981C24.1287 23.5778 23.6376 24.1287 23.0318 24.1287C22.4263 24.1287 21.9352 23.5778 21.9352 22.8981V19.8755Z" fill="#FFE804"></path></g></svg>