<svg width="30" height="30" viewBox="0 0 30 30" fill="none" xmlns="http://www.w3.org/2000/svg">
<g filter="url(#filter0_d)">
<path fill-rule="evenodd" clip-rule="evenodd" d="M7 14C7.55228 14 8 14.4477 8 15V24H22V15C22 14.4477 22.4477 14 23 14C23.5523 14 24 14.4477 24 15V25C24 25.5523 23.5523 26 23 26H7C6.44772 26 6 25.5523 6 25V15C6 14.4477 6.44772 14 7 14Z" fill="white"/>
<path fill-rule="evenodd" clip-rule="evenodd" d="M4 10C4 9.44772 4.44772 9 5 9H25C25.5523 9 26 9.44772 26 10V15C26 15.5523 25.5523 16 25 16H5C4.44772 16 4 15.5523 4 15V10ZM6 11V14H24V11H6Z" fill="white"/>
<path fill-rule="evenodd" clip-rule="evenodd" d="M15 9C15.5523 9 16 9.44772 16 10V25C16 25.5523 15.5523 26 15 26C14.4477 26 14 25.5523 14 25V10C14 9.44772 14.4477 9 15 9Z" fill="white"/>
<path fill-rule="evenodd" clip-rule="evenodd" d="M10.5 6C10.1022 6 9.72064 6.15804 9.43934 6.43934C9.15804 6.72064 9 7.10218 9 7.5C9 7.89782 9.15804 8.27936 9.43934 8.56066C9.72064 8.84196 10.1022 9 10.5 9H13.654C13.5319 8.68061 13.3774 8.32942 13.1863 7.98192C12.5573 6.83834 11.6939 6 10.5 6ZM15 10C15.9806 9.80388 15.9805 9.80354 15.9804 9.80318L15.9803 9.80236L15.9799 9.80038L15.9788 9.79503L15.9754 9.77893C15.9727 9.76583 15.9688 9.74805 15.9639 9.72588C15.954 9.68157 15.9396 9.61965 15.9203 9.54262C15.8819 9.38877 15.8237 9.17343 15.7424 8.91686C15.581 8.40732 15.3233 7.71734 14.9387 7.01808C14.1927 5.66166 12.8061 4 10.5 4C9.57174 4 8.6815 4.36875 8.02513 5.02513C7.36875 5.6815 7 6.57174 7 7.5C7 8.42826 7.36875 9.3185 8.02513 9.97487C8.6815 10.6313 9.57174 11 10.5 11H15C15.2996 11 15.5834 10.8657 15.7733 10.634C15.9633 10.4023 16.0393 10.0977 15.9806 9.80388L15 10Z" fill="white"/>
<path fill-rule="evenodd" clip-rule="evenodd" d="M15.0613 7.01808C15.8073 5.66166 17.1939 4 19.5 4C20.4283 4 21.3185 4.36875 21.9749 5.02513C22.6313 5.6815 23 6.57174 23 7.5C23 8.42826 22.6313 9.3185 21.9749 9.97487C21.3185 10.6313 20.4283 11 19.5 11H15C14.7004 11 14.4166 10.8657 14.2267 10.634C14.0367 10.4023 13.9607 10.0977 14.0194 9.80388L15 10C14.0194 9.80388 14.0195 9.80354 14.0196 9.80318L14.0197 9.80236L14.0201 9.80038L14.0212 9.79503L14.0246 9.77893C14.0273 9.76583 14.0312 9.74805 14.0361 9.72588C14.046 9.68157 14.0604 9.61965 14.0797 9.54262C14.1181 9.38877 14.1763 9.17343 14.2576 8.91686C14.419 8.40732 14.6767 7.71734 15.0613 7.01808ZM16.346 9H19.5C19.8978 9 20.2794 8.84196 20.5607 8.56066C20.842 8.27936 21 7.89782 21 7.5C21 7.10218 20.842 6.72064 20.5607 6.43934C20.2794 6.15804 19.8978 6 19.5 6C18.3061 6 17.4427 6.83834 16.8137 7.98192C16.6226 8.32942 16.4681 8.68061 16.346 9ZM15.9802 10.1978C15.9802 10.1981 15.9802 10.198 15.9803 10.1977L15.9802 10.1978Z" fill="white"/>
</g>
<defs>
<filter id="filter0_d" x="-1" y="-1" width="32" height="32" filterUnits="userSpaceOnUse" color-interpolation-filters="sRGB">
<feFlood flood-opacity="0" result="BackgroundImageFix"/>
<feColorMatrix in="SourceAlpha" type="matrix" values="0 0 0 0 0 0 0 0 0 0 0 0 0 0 0 0 0 0 127 0"/>
<feOffset/>
<feGaussianBlur stdDeviation="2"/>
<feColorMatrix type="matrix" values="0 0 0 0 0.568627 0 0 0 0 1 0 0 0 0 0.741177 0 0 0 0.5 0"/>
<feBlend mode="normal" in2="BackgroundImageFix" result="effect1_dropShadow"/>
<feBlend mode="normal" in="SourceGraphic" in2="effect1_dropShadow" result="shape"/>
</filter>
</defs>
</svg>
