<svg xmlns:dc="http://purl.org/dc/elements/1.1/" xmlns:cc="http://creativecommons.org/ns#" xmlns:rdf="http://www.w3.org/1999/02/22-rdf-syntax-ns#" xmlns:svg="http://www.w3.org/2000/svg" xmlns="http://www.w3.org/2000/svg" xmlns:sodipodi="http://sodipodi.sourceforge.net/DTD/sodipodi-0.dtd" xmlns:inkscape="http://www.inkscape.org/namespaces/inkscape" inkscape:version="1.0 (4035a4f, 2020-05-01)" sodipodi:docname="nexus-mutual-vector-Icon.svg" xml:space="preserve" viewBox="0 0 256 256" y="0px" x="0px" id="layer" version="1.1"><metadata id="metadata42"><rdf:RDF><cc:Work rdf:about=""><dc:format>image/svg+xml</dc:format><dc:type rdf:resource="http://purl.org/dc/dcmitype/StillImage"/><dc:title/></cc:Work></rdf:RDF></metadata><defs id="defs40"/><sodipodi:namedview inkscape:current-layer="Group-10" inkscape:window-maximized="0" inkscape:window-y="0" inkscape:window-x="0" inkscape:cy="102.40063" inkscape:cx="267.58295" inkscape:zoom="1.0613497" fit-margin-bottom="0" fit-margin-right="0" fit-margin-left="0" fit-margin-top="0" showgrid="false" id="namedview38" inkscape:window-height="747" inkscape:window-width="1368" inkscape:pageshadow="2" inkscape:pageopacity="0" guidetolerance="10" gridtolerance="10" objecttolerance="10" borderopacity="1" bordercolor="#666666" pagecolor="#ffffff"/>
<style id="style10" type="text/css">
	.st0{fill:#191F27;}
	.st1{fill:#338040;}
	.st2{fill:#378241;}
	.st3{fill:#FFFFFF;}
</style>
<g transform="translate(-56.53266,-70.963535)" id="New">
	<g transform="translate(-250,-1315)" id="Home---with-Nexus-Mutual-Copy">
		<g transform="translate(250.00004,1315.14)" id="Group-10">
			<path style="stroke-width:2.63901" d="m 98.230337,223.81246 c 13.179543,0 23.723183,-10.56841 23.723183,-23.77892 0,-13.47473 -10.80722,-24.30737 -24.250362,-24.04315 -13.970323,0.26421 -24.513961,10.83263 -24.25037,24.04315 0,13.73894 10.80723,23.77892 24.777549,23.77892 M 184.68818,135.5662 c 13.17954,-0.26421 23.72318,-10.83262 23.72318,-24.04315 0,-13.21051 -11.598,-24.307348 -24.77755,-24.043136 -13.70673,0.528418 -24.51396,11.361044 -23.98678,24.571556 0.2636,13.47473 11.33441,23.77894 25.04115,23.51473 m 86.72142,86.39679 c 13.17955,0.52843 24.25037,-9.51157 24.77755,-22.72209 0.52718,-13.47473 -10.01646,-24.83578 -23.196,-25.09999 -13.97033,-0.2642 -25.04114,9.77579 -25.30474,23.25052 -0.26359,13.73893 9.75287,24.30735 23.72319,24.57156 m -85.40347,88.51048 c 13.17955,0 23.72319,-10.56842 23.98678,-23.51473 0.26359,-12.94631 -10.54364,-24.04314 -23.4596,-24.30735 -13.97032,-0.26421 -25.30473,10.56841 -25.30473,24.04314 0,12.9463 11.33441,23.51472 24.77755,23.77894 m 86.45783,-71.86522 c -11.598,-0.26422 -21.61445,-3.69895 -30.04936,-12.41789 -9.75287,-9.77578 -21.61447,-11.09684 -30.31297,-3.43474 -9.22568,7.92632 -9.75286,20.07999 -0.52718,31.17683 10.01646,12.15367 17.6606,24.83577 13.70673,41.48102 -3.69027,15.58842 -16.07905,28.0063 -31.36732,30.64841 -16.86982,3.17053 -33.73965,-3.69895 -42.43815,-17.96631 -9.22568,-14.79577 -8.6985,-29.85577 0.52719,-44.65155 2.10872,-3.43474 5.00822,-6.34105 7.38054,-9.51157 8.43491,-10.56842 8.17132,-22.45788 -1.31795,-30.3842 -8.9621,-7.6621 -20.82369,-6.60526 -29.78578,2.64211 -11.07082,11.88946 -24.77755,16.38104 -40.593013,12.6821 -16.606228,-3.96316 -28.467821,-17.17368 -30.84014,-34.08314 -2.108728,-15.85263 6.589774,-32.76209 20.560095,-40.42419 15.288276,-8.19053 33.476058,-6.34105 46.655598,4.75579 1.58155,1.32105 3.1631,3.17053 4.74464,4.49158 8.96209,8.19052 21.35087,8.19052 29.52219,0.26421 7.90773,-7.66211 8.43491,-19.55157 1.05436,-28.79894 -6.32618,-7.66209 -12.91595,-14.53157 -15.02468,-24.83577 -3.95387,-18.75894 4.74463,-37.517874 21.87805,-45.444185 17.66059,-8.190521 38.48428,-3.434735 49.81869,11.625258 11.598,15.059987 11.33441,35.932607 -1.05437,50.728387 -2.10872,2.3779 -4.21745,5.02 -6.32618,7.39789 -7.11696,9.51158 -6.32618,21.13683 1.84514,28.79894 8.43491,7.6621 20.82368,7.6621 29.25859,-1.32106 8.9621,-9.24736 19.24214,-14.79578 32.42169,-14.79578 22.40523,0 40.32942,17.96631 40.32942,40.6884 0.26359,22.45788 -17.92419,40.42418 -40.06583,40.6884" class="st0" id="Fill-4"/>
			
			
			
			
			
			
			
			
			
			
			
			<path style="stroke-width:2.63901" d="m 186.00613,302.54716 c 8.96209,0 15.81546,-6.86948 16.07905,-15.85263 0,-8.98315 -7.38055,-16.64525 -16.34264,-16.38104 -8.43491,0.26421 -16.34264,7.92631 -16.60623,15.85262 0,8.71894 8.17132,16.64526 16.86982,16.38105 m 0.26359,7.92631 c -13.70673,0 -24.77755,-10.56842 -24.77755,-23.77894 0,-13.47473 11.33441,-24.30735 25.30473,-24.04314 12.91596,0.26421 23.4596,11.09683 23.4596,24.30735 -0.26359,12.94631 -11.07082,23.51473 -23.98678,23.51473" class="st3" id="Fill-29"/>
			<path style="stroke-width:2.63901" d="m 272.20037,214.03667 c 8.96209,0.26422 16.07905,-6.60525 16.34264,-15.5884 0.26359,-8.98315 -7.11695,-16.64525 -16.07905,-16.90946 -8.96209,0 -16.86982,7.66209 -16.86982,16.11682 0,9.24737 7.11696,16.38104 16.60623,16.38104 m -0.79077,7.92632 c -13.97032,-0.52842 -23.98678,-10.83263 -23.72319,-24.57156 0.2636,-13.47473 11.33441,-23.51472 25.30474,-23.25052 13.44314,0.26421 23.98678,11.88947 23.196,25.09999 -0.52718,13.21052 -11.598,23.25052 -24.77755,22.72209" class="st3" id="Fill-31"/>
			<path style="stroke-width:2.63901" d="m 200.50363,111.78726 c 0,-8.98315 -7.11695,-16.116828 -16.07905,-16.116828 -9.22568,0 -16.86982,7.397888 -16.86982,16.116828 0,8.45474 8.6985,16.64526 17.13342,16.38105 8.6985,-0.26421 15.81545,-7.6621 15.81545,-16.38105 m -15.81545,23.77894 c -13.70674,0.26421 -24.77755,-10.04 -25.04115,-23.51473 -0.26359,-13.210512 10.54364,-24.043138 23.98678,-24.571556 13.17955,-0.528423 24.77755,10.832626 24.77755,24.043136 0,13.21053 -10.54364,23.77894 -23.72318,24.04315" class="st3" id="Fill-33"/>
			<path style="stroke-width:2.63901" d="m 97.966745,183.65249 c -8.962088,0 -16.869819,7.39789 -16.869819,16.11683 0,8.19052 8.962093,16.38104 17.924186,16.38104 8.171318,0 15.024688,-7.39788 15.024688,-15.85261 0.26358,-9.24737 -6.85337,-16.64526 -16.079055,-16.64526 m 0.263592,40.15997 c -13.970319,0 -24.777549,-10.03998 -24.777549,-23.51471 -0.263591,-13.21052 10.543638,-23.77894 24.25037,-24.04315 13.443142,-0.26421 24.250362,10.30421 24.250362,24.04315 0,12.9463 -10.54364,23.51471 -23.723183,23.51471" class="st3" id="Fill-35"/>
			
			
			<path style="stroke-width:2.63901" d="m 186.00613,302.54716 c -8.6985,0 -16.86982,-7.92632 -16.86982,-16.38105 0,-8.19052 7.90773,-15.85262 16.60623,-15.85262 8.96209,-0.26421 16.60623,7.39789 16.34264,16.38104 0,9.24736 -6.85337,15.85263 -16.07905,15.85263" class="st2" id="Fill-41"/>
			<path style="stroke-width:2.63901" d="m 272.20037,214.03667 c -9.22568,-0.26419 -16.60623,-7.13367 -16.60623,-16.11682 0,-8.45473 7.90773,-16.11683 16.86982,-16.11683 8.9621,0 16.34264,7.92631 16.07905,16.90946 -0.26359,8.71894 -7.38055,15.58841 -16.34264,15.32419" class="st2" id="Fill-43"/>
			<path style="stroke-width:2.63901" d="m 200.50363,111.78726 c 0,8.98315 -7.11695,16.11684 -15.81545,16.38105 -8.43492,0.26421 -17.13342,-7.92631 -17.13342,-16.38105 0,-8.71894 7.64414,-16.116828 16.86982,-16.116828 8.9621,0 16.07905,7.133678 16.07905,16.116828" class="st2" id="Fill-45"/>
			<path style="stroke-width:2.63901" d="m 97.966745,183.65249 c 9.225685,0 16.342635,7.13368 16.079055,16.64526 0,8.71894 -6.85337,15.85261 -15.024688,15.85261 -8.962093,0 -17.924186,-8.19052 -17.924186,-16.38104 0,-8.45473 7.907731,-16.11683 16.869819,-16.11683" class="st2" id="Fill-47"/>
		</g>
	</g>
</g>
</svg>