<svg width="26" height="30" viewBox="0 0 26 30" fill="none" xmlns="http://www.w3.org/2000/svg">
<g filter="url(#filter0_d)">
<path fill-rule="evenodd" clip-rule="evenodd" d="M12.6489 4.06367C12.8753 3.97878 13.1247 3.97878 13.3511 4.06367L21.3511 7.06367C21.7414 7.21003 22 7.58316 22 8V15C22 18.4464 19.7183 21.2003 17.6585 23.0026C16.6076 23.9221 15.5615 24.6408 14.78 25.1292C14.3882 25.3741 14.0603 25.5627 13.8281 25.6913C13.7119 25.7556 13.6194 25.805 13.5547 25.839C13.5223 25.856 13.4968 25.8692 13.4788 25.8784L13.4573 25.8894L13.4508 25.8926L13.4486 25.8937C13.4483 25.8939 13.4472 25.8944 13 25C12.5528 25.8944 12.5525 25.8943 12.5522 25.8941L12.5492 25.8926L12.5427 25.8894L12.5212 25.8784C12.5032 25.8692 12.4777 25.856 12.4453 25.839C12.3806 25.805 12.2881 25.7556 12.1719 25.6913C11.9397 25.5627 11.6118 25.3741 11.22 25.1292C10.4385 24.6408 9.39238 23.9221 8.3415 23.0026C6.28175 21.2003 4 18.4464 4 15V8C4 7.58316 4.25857 7.21003 4.64888 7.06367L12.6489 4.06367ZM13 25L12.5522 25.8941C12.8337 26.0349 13.1657 26.0352 13.4472 25.8944L13 25ZM13 23.8628C13.1916 23.7541 13.4367 23.6103 13.72 23.4333C14.4385 22.9842 15.3924 22.3279 16.3415 21.4974C18.2817 19.7997 20 17.5536 20 15V8.693L13 6.068L6 8.693V15C6 17.5536 7.71825 19.7997 9.6585 21.4974C10.6076 22.3279 11.5615 22.9842 12.28 23.4333C12.5633 23.6103 12.8084 23.7541 13 23.8628Z" fill="white"/>
</g>
<defs>
<filter id="filter0_d" x="-3" y="-1" width="32" height="32" filterUnits="userSpaceOnUse" color-interpolation-filters="sRGB">
<feFlood flood-opacity="0" result="BackgroundImageFix"/>
<feColorMatrix in="SourceAlpha" type="matrix" values="0 0 0 0 0 0 0 0 0 0 0 0 0 0 0 0 0 0 127 0"/>
<feOffset/>
<feGaussianBlur stdDeviation="2"/>
<feColorMatrix type="matrix" values="0 0 0 0 0.568627 0 0 0 0 1 0 0 0 0 0.741177 0 0 0 0.5 0"/>
<feBlend mode="normal" in2="BackgroundImageFix" result="effect1_dropShadow"/>
<feBlend mode="normal" in="SourceGraphic" in2="effect1_dropShadow" result="shape"/>
</filter>
</defs>
</svg>
