<svg xmlns="http://www.w3.org/2000/svg" xmlns:xlink="http://www.w3.org/1999/xlink" version="1.1" id="Layer_1" x="0px" y="0px" viewBox="0 0 256 256" style="enable-background:new 0 0 256 256;" xml:space="preserve">
<style type="text/css">
	.st0{fill:#FFFFFF;}
	.st1{fill:#28ABE3;}
	.st2{fill:#28ABE3;fill-opacity:0.5;}
</style>
<circle class="st0" cx="127.93" cy="128.03" r="125.5"/>
<g id="Page-1">
	<g id="Home-Page-Variant" transform="translate(-92.000000, -79.000000)">
		<g id="logo" transform="translate(91.662109, 77.654297)">
			<g id="Group-6" transform="translate(0.000000, 0.187370)">
				<g id="Group-5" transform="translate(0.228737, 0.144786)">
					<g id="Group-4" transform="translate(0.020075, 0.124054)">
						<path id="Rectangle-2" class="st1" d="M137.7,119.51c5.18,0,9.38,4.2,9.38,9.38s-4.2,9.38-9.38,9.38h-24.34        c-23.58,0-42.69-19.11-42.69-42.69s19.11-42.69,42.69-42.69h62.78c5.18,0,9.38,4.2,9.38,9.38s-4.2,9.38-9.38,9.38h-62.78        c-13.22,0-23.93,10.72-23.93,23.93s10.72,23.93,23.93,23.93H137.7z"/>
						<path id="Rectangle-2-Copy" class="st1" d="M118.48,138.27c-5.18,0-9.38-4.2-9.38-9.38c0-5.18,4.2-9.38,9.38-9.38h24.34        c23.58,0,42.69,19.11,42.69,42.69s-19.11,42.69-42.69,42.69H80.04c-5.18,0-9.38-4.2-9.38-9.38s4.2-9.38,9.38-9.38h62.78        c13.22,0,23.93-10.72,23.93-23.93s-10.72-23.93-23.93-23.93H118.48z"/>
						<polygon id="Path-3" class="st2" points="87.45,201.11 72.21,190.18 168.1,56.36 183.35,67.28       "/>
					</g>
				</g>
			</g>
		</g>
	</g>
</g>
<g>
</g>
<g>
</g>
<g>
</g>
<g>
</g>
<g>
</g>
<g>
</g>
<g>
</g>
<g>
</g>
<g>
</g>
<g>
</g>
<g>
</g>
<g>
</g>
<g>
</g>
<g>
</g>
<g>
</g>
</svg>