<svg width="28" height="28" viewBox="0 0 28 28" fill="none" xmlns="http://www.w3.org/2000/svg">
<g filter="url(#filter0_d)">
<path d="M19.4375 8.375L17.5625 8.375C17.4594 8.375 17.375 8.45938 17.375 8.5625L17.375 19.4375C17.375 19.5406 17.4594 19.625 17.5625 19.625L19.4375 19.625C19.5406 19.625 19.625 19.5406 19.625 19.4375L19.625 8.5625C19.625 8.45938 19.5406 8.375 19.4375 8.375ZM14.9375 14.9375L13.0625 14.9375C12.9594 14.9375 12.875 15.0219 12.875 15.125L12.875 19.4375C12.875 19.5406 12.9594 19.625 13.0625 19.625L14.9375 19.625C15.0406 19.625 15.125 19.5406 15.125 19.4375L15.125 15.125C15.125 15.0219 15.0406 14.9375 14.9375 14.9375ZM10.4375 13.25L8.5625 13.25C8.45937 13.25 8.375 13.3344 8.375 13.4375L8.375 19.4375C8.375 19.5406 8.45938 19.625 8.5625 19.625L10.4375 19.625C10.5406 19.625 10.625 19.5406 10.625 19.4375L10.625 13.4375C10.625 13.3344 10.5406 13.25 10.4375 13.25ZM5.375 23.375L22.625 23.375C23.0398 23.375 23.375 23.0398 23.375 22.625L23.375 5.375C23.375 4.96016 23.0398 4.625 22.625 4.625L5.375 4.625C4.96015 4.625 4.625 4.96016 4.625 5.375L4.625 22.625C4.625 23.0398 4.96016 23.375 5.375 23.375ZM6.3125 6.3125L21.6875 6.3125L21.6875 21.6875L6.3125 21.6875L6.3125 6.3125Z" fill="white"/>
</g>
<defs>
<filter id="filter0_d" x="-2" y="-2" width="32" height="32" filterUnits="userSpaceOnUse" color-interpolation-filters="sRGB">
<feFlood flood-opacity="0" result="BackgroundImageFix"/>
<feColorMatrix in="SourceAlpha" type="matrix" values="0 0 0 0 0 0 0 0 0 0 0 0 0 0 0 0 0 0 127 0"/>
<feOffset/>
<feGaussianBlur stdDeviation="2"/>
<feColorMatrix type="matrix" values="0 0 0 0 0.568627 0 0 0 0 1 0 0 0 0 0.741177 0 0 0 0.5 0"/>
<feBlend mode="normal" in2="BackgroundImageFix" result="effect1_dropShadow"/>
<feBlend mode="normal" in="SourceGraphic" in2="effect1_dropShadow" result="shape"/>
</filter>
</defs>
</svg>
