<svg xmlns="http://www.w3.org/2000/svg" xmlns:xlink="http://www.w3.org/1999/xlink" viewBox="0 0 131 38" version="1.1">
    <!-- Generator: Sketch 49.2 (51160) - http://www.bohemiancoding.com/sketch -->

    <defs>
        <linearGradient x1="50%" y1="0%" x2="50%" y2="100%" id="linearGradient-1">
            <stop stop-color="#00B8FF" offset="0%"/>
            <stop stop-color="#0098EB" offset="100%"/>
        </linearGradient>
    </defs>
    <g id="Symbols" stroke="none" stroke-width="1" fill="none" fill-rule="evenodd">
        <g id="Footer" transform="translate(-132.000000, -336.000000)">
            <g transform="translate(0.000000, 272.000000)" id="Totle-Logo">
                <g transform="translate(132.000000, 64.000000)">
                    <g>
                        <g fill-rule="nonzero" id="Totle-logo-horizontal-vers-Copy">
                            <g>
                                <g id="logo-1">
                                    <rect id="Rectangle" fill="url(#linearGradient-1)" x="0" y="0" width="38" height="38" rx="4"/>
                                    <polygon id="Combined-Shape" fill="#FFFFFF" points="10.4081637 17.8068391 10.4081637 15.349414 15.3152091 15.349414 15.3152091 29.434994 14.6347104 28.7865325 11.2374974 25.5492565 5.7 20.2856001 5.7 9.5 32.3 9.5 32.3 20.2856001 32.1794733 20.4001666 26.7551289 25.5562671 22.6774971 29.4424494 22.6774971 15.2635958 27.5904687 15.2635958 27.5904687 17.721021 27.1901343 17.721021 25.3576721 17.721021 25.3576721 23.5720251 29.8058155 19.2249804 29.8058155 11.9586841 21.80923 11.9578586 20.3213972 11.9578586 20.3213972 31.6679737 19.0029692 32.9333333 17.6403106 31.6340481 17.6403106 11.9578586 16.1903565 11.9578586 8.19372864 11.9586841 8.19372864 19.2249557 12.6345783 23.5639345 12.6345783 17.8068391"/>
                                </g>
                            </g>
                        </g>
                        <path d="M58.9620321,13.9247312 L54,13.9247312 L54,11.4112903 L66.8052442,11.4112903 L66.8052442,13.9247312 L61.8432121,13.9247312 L61.8432121,27.5887097 L58.9620321,27.5887097 L58.9620321,13.9247312 Z M69.3341106,19.4543011 C69.3341106,18.1594917 69.5513403,16.9903726 69.985806,15.9469086 C70.420272,14.9034446 71.0224172,14.0161327 71.7922601,13.2849462 C72.5621033,12.5537598 73.4767542,11.9901454 74.536241,11.594086 C75.5957279,11.1980267 76.7504751,11 78.0005169,11 C79.2658034,11 80.4319836,11.1980267 81.4990926,11.594086 C82.5662018,11.9901454 83.4884749,12.5537598 84.26594,13.2849462 C85.0434053,14.0161327 85.6493616,14.9034446 86.0838274,15.9469086 C86.5182933,16.9903726 86.7355228,18.1594917 86.7355228,19.4543011 C86.7355228,20.7186443 86.5182933,21.8725306 86.0838274,22.9159946 C85.6493616,23.9594587 85.0434053,24.8581951 84.26594,25.6122312 C83.4884749,26.3662672 82.5662018,26.9527309 81.4990926,27.3716398 C80.4319836,27.7905487 79.2658034,28 78.0005169,28 C76.7504751,28 75.5957279,27.7905487 74.536241,27.3716398 C73.4767542,26.9527309 72.5621033,26.3662672 71.7922601,25.6122312 C71.0224172,24.8581951 70.420272,23.9594587 69.985806,22.9159946 C69.5513403,21.8725306 69.3341106,20.7186443 69.3341106,19.4543011 Z M72.4668221,19.4543011 C72.4668221,20.322585 72.6002088,21.1185 72.866986,21.8420699 C73.1337634,22.5656398 73.5148681,23.1939937 74.0103114,23.7271505 C74.5057549,24.2603074 75.092656,24.6754017 75.7710325,24.9724462 C76.4494089,25.2694907 77.2001852,25.4180108 78.0233835,25.4180108 C78.846582,25.4180108 79.6011691,25.2694907 80.2871677,24.9724462 C80.9731665,24.6754017 81.5638787,24.2603074 82.059322,23.7271505 C82.5547656,23.1939937 82.9358702,22.5656398 83.2026474,21.8420699 C83.4694248,21.1185 83.6028113,20.322585 83.6028113,19.4543011 C83.6028113,18.6164833 83.4694248,17.8396093 83.2026474,17.1236559 C82.9358702,16.4077025 82.5585767,15.7831568 82.0707553,15.25 C81.5829341,14.7168432 80.996033,14.2979406 80.3100342,13.9932796 C79.6240356,13.6886185 78.8618263,13.5362903 78.0233835,13.5362903 C77.1849408,13.5362903 76.4265424,13.6886185 75.7481659,13.9932796 C75.0697895,14.2979406 74.4866995,14.7168432 73.9988781,15.25 C73.511057,15.7831568 73.1337634,16.4077025 72.866986,17.1236559 C72.6002088,17.8396093 72.4668221,18.6164833 72.4668221,19.4543011 Z M94.2264213,13.9247312 L89.2643892,13.9247312 L89.2643892,11.4112903 L102.069633,11.4112903 L102.069633,13.9247312 L97.1076013,13.9247312 L97.1076013,27.5887097 L94.2264213,27.5887097 L94.2264213,13.9247312 Z M106.061956,11.4112903 L108.943136,11.4112903 L108.943136,25.0295699 L115.825955,25.0295699 L115.825955,27.5887097 L106.061956,27.5887097 L106.061956,11.4112903 Z M119.864011,11.4112903 L130.588403,11.4112903 L130.588403,13.9247312 L122.745191,13.9247312 L122.745191,18.0376344 L130.176806,18.0376344 L130.176806,20.4596774 L122.745191,20.4596774 L122.745191,25.0295699 L131,25.0295699 L131,27.5887097 L119.864011,27.5887097 L119.864011,11.4112903 Z" id="TOTLE" fill="#1B465C" fill-rule="nonzero"/>
                    </g>
                </g>
            </g>
        </g>
    </g>
</svg>