<svg width="24" height="24" viewBox="0 0 24 24" fill="none" xmlns="http://www.w3.org/2000/svg">
<path fill-rule="evenodd" clip-rule="evenodd" d="M17.6573 17.6568C17.2668 18.0473 16.6336 18.0473 16.2431 17.6568L6.34359 7.75729C5.95307 7.36677 5.95307 6.7336 6.34359 6.34308C6.73412 5.95255 7.36728 5.95255 7.75781 6.34308L17.6573 16.2426C18.0478 16.6331 18.0478 17.2663 17.6573 17.6568Z" fill="#9299A6"/>
<path fill-rule="evenodd" clip-rule="evenodd" d="M17.6572 6.34322C18.0477 6.73374 18.0477 7.36691 17.6572 7.75743L7.75766 17.6569C7.36713 18.0474 6.73397 18.0474 6.34344 17.6569C5.95292 17.2664 5.95292 16.6332 6.34344 16.2427L16.2429 6.34322C16.6335 5.95269 17.2666 5.95269 17.6572 6.34322Z" fill="#9299A6"/>
</svg>
