<svg width="30" height="30" viewBox="0 0 30 30" fill="none" xmlns="http://www.w3.org/2000/svg">
    <path fill-rule="evenodd" clip-rule="evenodd" d="M15.0002 3.00004C8.37274 3.00004 3.00016 8.37262 3.00016 15C3.00016 21.6275 8.37274 27 15.0002 27C21.6276 27 27.0002 21.6275 27.0002 15C27.0002 8.37262 21.6276 3.00004 15.0002 3.00004ZM0.333496 15C0.333496 6.89986 6.89999 0.333374 15.0002 0.333374C23.1003 0.333374 29.6668 6.89986 29.6668 15C29.6668 23.1002 23.1003 29.6667 15.0002 29.6667C6.89999 29.6667 0.333496 23.1002 0.333496 15Z" fill="white"/>
    <path fill-rule="evenodd" clip-rule="evenodd" d="M13.6665 21.6667C13.6665 20.9303 14.2635 20.3334 14.9998 20.3334H15.0132C15.7495 20.3334 16.3465 20.9303 16.3465 21.6667C16.3465 22.4031 15.7495 23 15.0132 23H14.9998C14.2635 23 13.6665 22.4031 13.6665 21.6667Z" fill="white"/>
    <rect x="13.6665" y="7" width="2.66667" height="10.6667" rx="1.33333" fill="white"/>
</svg>
