<svg width="325" height="317" viewBox="0 0 325 317" fill="none" xmlns="http://www.w3.org/2000/svg">
<g filter="url(#filter0_d)">
<path fill-rule="evenodd" clip-rule="evenodd" d="M53.19 195.381C51.2254 184.239 50.2431 178.668 53.0941 174.597C55.9451 170.525 61.516 169.543 72.6579 167.578L235.151 138.926C246.293 136.961 251.864 135.979 255.936 138.83C260.007 141.681 260.989 147.252 262.954 158.394L271.81 208.619C273.775 219.761 274.757 225.332 271.906 229.404C269.055 233.475 263.484 234.457 252.342 236.422L89.849 265.074C78.7072 267.039 73.1363 268.021 69.0646 265.17C64.993 262.319 64.0107 256.748 62.0461 245.606L53.19 195.381ZM72.1345 181.886C72.7099 185.15 70.5309 188.262 67.2675 188.837C64.0042 189.412 60.8922 187.233 60.3168 183.97C59.7414 180.707 61.9204 177.595 65.1838 177.019C68.4471 176.444 71.5591 178.623 72.1345 181.886ZM247.487 157.059C250.751 156.484 252.93 153.372 252.354 150.109C251.779 146.845 248.667 144.666 245.404 145.242C242.14 145.817 239.961 148.929 240.537 152.192C241.112 155.456 244.224 157.635 247.487 157.059Z" fill="url(#paint0_linear)"/>
<path d="M120.864 199.207C120.661 201.284 119.898 202.911 118.574 204.087C117.266 205.24 115.612 205.993 113.613 206.345C111.69 206.684 109.966 206.596 108.442 206.079C106.933 205.54 105.68 204.613 104.683 203.297C103.685 201.981 103.006 200.304 102.647 198.267C102.288 196.23 102.352 194.422 102.84 192.844C103.327 191.266 104.189 189.975 105.425 188.972C106.678 187.946 108.256 187.266 110.16 186.93C112.121 186.584 113.908 186.701 115.522 187.28C117.136 187.859 118.338 189.002 119.13 190.708L115.125 193.21C114.653 192.096 114.075 191.373 113.388 191.043C112.717 190.69 111.925 190.594 111.011 190.755C109.64 190.997 108.652 191.682 108.046 192.809C107.459 193.934 107.335 195.457 107.674 197.38C108.013 199.303 108.631 200.696 109.529 201.559C110.447 202.418 111.638 202.718 113.104 202.46C114.018 202.298 114.746 201.915 115.287 201.309C115.843 200.681 116.144 199.823 116.187 198.736L120.864 199.207ZM129.628 183.497C131.532 183.162 133.238 183.263 134.746 183.802C136.271 184.319 137.532 185.235 138.529 186.551C139.527 187.867 140.205 189.544 140.565 191.581C140.924 193.618 140.86 195.426 140.372 197.004C139.885 198.582 139.015 199.883 137.763 200.909C136.526 201.912 134.956 202.582 133.052 202.918C131.129 203.257 129.405 203.168 127.881 202.652C126.373 202.113 125.12 201.185 124.122 199.869C123.124 198.553 122.446 196.876 122.087 194.839C121.727 192.802 121.792 190.994 122.279 189.416C122.766 187.838 123.628 186.548 124.865 185.544C126.117 184.519 127.705 183.836 129.628 183.497ZM130.308 187.353C128.937 187.595 127.977 188.274 127.428 189.392C126.876 190.49 126.771 192.011 127.113 193.953C127.456 195.895 128.076 197.297 128.974 198.16C129.869 199.003 131.001 199.304 132.372 199.062C133.724 198.824 134.676 198.155 135.228 197.057C135.777 195.939 135.881 194.409 135.538 192.467C135.196 190.525 134.577 189.132 133.682 188.289C132.784 187.426 131.659 187.114 130.308 187.353ZM164.101 177.713L167.425 196.562L163.083 197.328L161.558 188.674L160.678 182.852L160.621 182.862L158.514 198.134L154.544 198.834L147.341 185.203L147.284 185.213L148.449 190.986L149.975 199.639L145.605 200.41L142.281 181.561L149.279 180.327L153.941 189.399L155.702 193.211L155.76 193.201L156.145 189.04L157.389 178.897L164.101 177.713ZM173.187 176.111L176.511 194.96L171.599 195.826L168.275 176.977L173.187 176.111ZM194.36 172.378L197.684 191.227L192.229 192.189L184.576 183.025L182.655 180.478L182.626 180.483L183.355 183.947L185.032 193.458L180.691 194.223L177.367 175.374L182.822 174.412L190.475 183.576L192.396 186.123L192.425 186.118L191.696 182.653L190.019 173.143L194.36 172.378ZM209.706 189.401C208.031 189.697 206.471 189.589 205.026 189.078C203.601 188.564 202.398 187.647 201.42 186.328C200.441 185.008 199.769 183.311 199.403 181.236C199.047 179.217 199.122 177.418 199.629 175.836C200.132 174.236 201.019 172.921 202.29 171.892C203.581 170.86 205.187 170.174 207.11 169.835C209.262 169.456 211.054 169.542 212.486 170.094C213.934 170.624 215.168 171.663 216.187 173.211L211.963 175.811C211.544 174.884 210.982 174.257 210.276 173.929C209.571 173.602 208.752 173.521 207.819 173.685C206.41 173.934 205.404 174.632 204.801 175.778C204.214 176.903 204.089 178.417 204.424 180.321C204.78 182.339 205.436 183.774 206.391 184.627C207.343 185.46 208.599 185.739 210.161 185.464C211.246 185.272 212.105 184.856 212.738 184.214C213.371 183.573 213.593 182.719 213.405 181.652L213.355 181.367L209.042 182.127L208.463 178.843L216.945 177.347L218.738 187.514L215.397 188.104L214.789 185.826C214.403 186.757 213.784 187.534 212.932 188.155C212.095 188.754 211.02 189.17 209.706 189.401ZM127.867 214.271C129.619 213.962 131.21 213.966 132.64 214.283C134.086 214.578 135.396 215.161 136.571 216.034L134.759 219.622C133.789 218.91 132.792 218.428 131.766 218.177C130.756 217.903 129.651 217.873 128.451 218.084C127.404 218.269 126.682 218.573 126.286 218.996C125.889 219.419 125.735 219.878 125.822 220.373C125.892 220.773 126.134 221.084 126.546 221.306C126.974 221.505 127.623 221.626 128.494 221.669L131.79 221.824C133.753 221.93 135.245 222.324 136.269 223.007C137.292 223.691 137.927 224.727 138.172 226.117C138.407 227.45 138.264 228.643 137.743 229.697C137.219 230.732 136.399 231.593 135.283 232.28C134.164 232.949 132.834 233.419 131.291 233.691C129.387 234.027 127.592 234.029 125.904 233.699C124.213 233.349 122.812 232.752 121.701 231.907L123.492 228.205C124.341 228.899 125.414 229.417 126.711 229.758C128.004 230.079 129.289 230.128 130.565 229.903C132.545 229.553 133.432 228.798 133.228 227.637C133.157 227.237 132.946 226.931 132.594 226.718C132.258 226.482 131.683 226.339 130.869 226.286L127.249 226.129C126.142 226.089 125.133 225.933 124.222 225.662C123.329 225.387 122.584 224.949 121.988 224.348C121.387 223.727 120.995 222.893 120.81 221.846C120.602 220.666 120.741 219.561 121.227 218.533C121.71 217.486 122.514 216.589 123.639 215.841C124.763 215.093 126.173 214.569 127.867 214.271ZM147.36 210.833C149.264 210.498 150.97 210.599 152.478 211.138C154.003 211.655 155.264 212.571 156.261 213.887C157.259 215.203 157.937 216.88 158.297 218.917C158.656 220.954 158.592 222.762 158.104 224.34C157.617 225.918 156.747 227.22 155.495 228.245C154.258 229.249 152.688 229.918 150.784 230.254C148.861 230.593 147.138 230.504 145.613 229.988C144.105 229.449 142.852 228.521 141.854 227.205C140.856 225.889 140.178 224.212 139.819 222.175C139.46 220.138 139.524 218.33 140.011 216.752C140.498 215.175 141.36 213.884 142.597 212.881C143.849 211.855 145.437 211.172 147.36 210.833ZM148.04 214.689C146.669 214.931 145.709 215.61 145.16 216.728C144.608 217.827 144.503 219.347 144.845 221.289C145.188 223.231 145.808 224.633 146.706 225.496C147.601 226.339 148.733 226.64 150.104 226.398C151.456 226.16 152.408 225.491 152.96 224.393C153.509 223.275 153.613 221.745 153.27 219.803C152.928 217.861 152.309 216.469 151.414 215.625C150.516 214.763 149.391 214.451 148.04 214.689ZM168.417 207.121C170.321 206.785 172.027 206.886 173.535 207.425C175.06 207.942 176.321 208.858 177.318 210.174C178.316 211.49 178.994 213.167 179.354 215.204C179.713 217.241 179.649 219.049 179.161 220.627C178.674 222.205 177.804 223.507 176.552 224.532C175.315 225.536 173.745 226.205 171.841 226.541C169.918 226.88 168.195 226.791 166.67 226.275C165.162 225.736 163.909 224.808 162.911 223.492C161.913 222.176 161.235 220.5 160.876 218.462C160.517 216.425 160.581 214.617 161.068 213.04C161.555 211.462 162.417 210.171 163.654 209.168C164.906 208.142 166.494 207.46 168.417 207.121ZM169.097 210.976C167.726 211.218 166.766 211.897 166.217 213.015C165.665 214.114 165.56 215.634 165.902 217.576C166.245 219.518 166.865 220.92 167.763 221.783C168.658 222.626 169.79 222.927 171.161 222.685C172.513 222.447 173.465 221.779 174.017 220.68C174.566 219.562 174.67 218.032 174.327 216.09C173.985 214.148 173.366 212.756 172.471 211.912C171.573 211.05 170.448 210.738 169.097 210.976ZM198.063 202.187L201.387 221.037L195.932 221.999L188.28 212.835L186.358 210.288L186.33 210.293L187.058 213.757L188.735 223.268L184.394 224.033L181.071 205.184L186.525 204.222L194.178 213.385L196.099 215.932L196.128 215.927L195.399 212.463L193.722 202.953L198.063 202.187ZM206.98 200.615L208.053 206.698L208.678 213.42L204.709 214.12L202.998 207.59L201.925 201.507L206.98 200.615ZM206.961 215.372C207.818 215.221 208.531 215.311 209.1 215.642C209.669 215.974 210.02 216.521 210.154 217.282C210.285 218.025 210.14 218.649 209.719 219.155C209.298 219.661 208.659 219.99 207.802 220.141C206.945 220.292 206.233 220.202 205.664 219.87C205.114 219.535 204.773 218.997 204.642 218.254C204.508 217.493 204.642 216.86 205.044 216.358C205.465 215.851 206.104 215.523 206.961 215.372Z" fill="white"/>
</g>
<path d="M86.9921 165.059L71.5225 179.76L72.7223 177.437L83.0225 165.76L86.9921 165.059Z" fill="#1F2530" fill-opacity="0.15" style="mix-blend-mode:multiply"/>
<path d="M241.017 137.931L243.144 146.135L241.017 145.784L237.963 138.451L241.017 137.931Z" fill="#1F2530" fill-opacity="0.15" style="mix-blend-mode:multiply"/>
<path d="M69.0225 180.759L155.022 53.2585L243.522 148.759" stroke="#9299A6" stroke-width="3" stroke-linecap="round"/>
<path d="M69.0225 180.759L155.022 53.2585L243.522 148.759" stroke="url(#paint1_linear)" stroke-width="3" stroke-linecap="round"/>
<g filter="url(#filter1_d)">
<circle cx="155.022" cy="59.7585" r="12" fill="url(#paint2_linear)"/>
<circle cx="155.022" cy="59.7585" r="11" stroke="#B8BDC6" stroke-width="2"/>
</g>
<defs>
<filter id="filter0_d" x="27.314" y="123.05" width="270.372" height="177.9" filterUnits="userSpaceOnUse" color-interpolation-filters="sRGB">
<feFlood flood-opacity="0" result="BackgroundImageFix"/>
<feColorMatrix in="SourceAlpha" type="matrix" values="0 0 0 0 0 0 0 0 0 0 0 0 0 0 0 0 0 0 127 0"/>
<feOffset dy="10"/>
<feGaussianBlur stdDeviation="12"/>
<!-- <feColorMatrix type="matrix" values="0 0 0 0 0.721495 0 0 0 0 0.741859 0 0 0 0 0.775801 0 0 0 1 0"/> -->
<feBlend mode="normal" in2="BackgroundImageFix" result="effect1_dropShadow"/>
<feBlend mode="normal" in="SourceGraphic" in2="effect1_dropShadow" result="shape"/>
</filter>
<filter id="filter1_d" x="131.022" y="39.7585" width="48" height="48" filterUnits="userSpaceOnUse" color-interpolation-filters="sRGB">
<feFlood flood-opacity="0" result="BackgroundImageFix"/>
<feColorMatrix in="SourceAlpha" type="matrix" values="0 0 0 0 0 0 0 0 0 0 0 0 0 0 0 0 0 0 127 0"/>
<feOffset dy="4"/>
<feGaussianBlur stdDeviation="6"/>
<!-- <feColorMatrix type="matrix" values="0 0 0 0 0.721495 0 0 0 0 0.741859 0 0 0 0 0.775801 0 0 0 1 0"/> -->
<feBlend mode="normal" in2="BackgroundImageFix" result="effect1_dropShadow"/>
<feBlend mode="normal" in="SourceGraphic" in2="effect1_dropShadow" result="shape"/>
</filter>
<linearGradient id="paint0_linear" x1="198.178" y1="245.973" x2="139.637" y2="69.4566" gradientUnits="userSpaceOnUse">
<stop stop-color="#1890FF"/>
<stop offset="1" stop-color="#91FFBD"/>
</linearGradient>
<linearGradient id="paint1_linear" x1="156.022" y1="58.7585" x2="158.022" y2="114.759" gradientUnits="userSpaceOnUse">
<stop stop-color="#4D5461"/>
<stop offset="1" stop-color="white" stop-opacity="0"/>
</linearGradient>
<linearGradient id="paint2_linear" x1="155.022" y1="47.7585" x2="155.022" y2="71.7585" gradientUnits="userSpaceOnUse">
<stop stop-color="#E1E4EB"/>
<stop offset="1" stop-color="#B8BDC6"/>
</linearGradient>
</defs>
</svg>
